<svg width="40" height="37" viewBox="0 0 40 37" fill="none" xmlns="http://www.w3.org/2000/svg">
<path d="M27.0067 30C24.792 30 23 31.5681 23 33.5013C23 35.4319 24.792 37 27.0067 37C29.2097 37 31 35.4319 31 33.5013C31 31.5681 29.2097 30 27.0067 30Z" fill="#ABABAB"/>
<path fill-rule="evenodd" clip-rule="evenodd" d="M38.7587 13.7055H32.5199H32.4831L31.0436 22.2694H37.271L36.0934 29.67H31.4793C30.2724 27.9871 28.3252 26.8748 26.1112 26.8748C23.8919 26.8748 21.9435 27.9871 20.7304 29.67H13.9116L12.81 36H5.24657L6.29115 29.67H0L1.26252 22.2694H7.56059L9.04786 13.7055H2.7102L3.99349 6.30712H10.3136L11.3859 0H18.9387L17.8729 6.30712H26.1757L27.1835 0H34.7465L33.7415 6.30712H40L38.7587 13.7055ZM14.9481 22.5H23.4092L24.9508 13.4784H16.437L14.9481 22.5Z" fill="#ABABAB"/>
</svg>
