<?xml version="1.0" encoding="utf-8"?>
<!-- Generator: Adobe Illustrator 16.0.0, SVG Export Plug-In . SVG Version: 6.00 Build 0)  -->
<!DOCTYPE svg PUBLIC "-//W3C//DTD SVG 1.1//EN" "http://www.w3.org/Graphics/SVG/1.1/DTD/svg11.dtd">
<svg version="1.1" id="Layer_1" xmlns="http://www.w3.org/2000/svg" xmlns:xlink="http://www.w3.org/1999/xlink" x="0px" y="0px"
	 width="703px" height="331px" viewBox="248.5 179 703 331" enable-background="new 248.5 179 703 331" xml:space="preserve">
<g>
	<path fill="#080707" d="M378.726,333.858c6.977,0,11.234-2.484,11.234-7.835v-0.208c0-4.848-3.608-7.833-11.738-7.833h-18.359
		v15.876H378.726z M374.468,304.825c7.007,0,11.442-2.277,11.442-7.626v-0.209c0-4.73-3.695-7.419-10.378-7.419h-15.668v15.255
		H374.468z M344.371,275.675h33.498c8.248,0,14.723,2.246,18.86,6.385c3.283,3.312,4.937,7.332,4.937,12.239v0.238
		c0,8.13-4.315,12.654-9.489,15.551c8.367,3.222,13.511,8.041,13.511,17.738v0.206c0,13.157-10.731,19.78-26.991,19.78h-34.326
		V275.675z"/>
	<path fill="#080707" d="M464.462,353.932c9.431,0,15.137-3.309,15.137-10.524v-0.267c0-6.505-4.849-10.524-15.816-10.524h-24.686
		v21.315H464.462L464.462,353.932z M458.814,314.877c9.402,0,15.344-3.046,15.344-10.259v-0.266c0-6.356-4.966-9.962-13.984-9.962
		h-21.077v20.487H458.814z M418.311,275.675h45.058c11.087,0,19.808,3.043,25.366,8.602c4.434,4.437,6.651,9.846,6.651,16.5v0.265
		c0,10.939-5.823,17.028-12.742,20.902c11.206,4.317,18.124,10.821,18.124,23.859v0.266c0,17.769-14.397,26.638-36.335,26.638
		h-46.121V275.675z"/>
	<polygon fill="#080707" points="508.277,275.675 529.623,275.675 529.623,353.252 578.019,353.252 578.019,372.676 
		508.277,372.676 	"/>
	<path fill="#080707" d="M584.08,331.109v-55.434h21.375v54.871c0,15.786,7.923,23.976,20.961,23.976
		c13.01,0,20.932-7.894,20.932-23.265v-55.582h21.285V330.4c0,29.384-16.465,43.783-42.541,43.783
		C600.015,374.183,584.08,359.638,584.08,331.109"/>
	<polygon fill="#080707" points="680.432,274.936 700.119,274.936 745.588,334.657 745.588,274.936 766.668,274.936 
		766.668,371.907 748.486,371.907 701.512,310.266 701.512,371.907 680.432,371.907 	"/>
	<polygon fill="#080707" points="804.75,294.597 775.242,294.597 775.242,274.936 855.629,274.936 855.629,294.597 826.123,294.597 
		826.123,371.907 804.75,371.907 	"/>
	<rect x="344.4" y="356.146" fill="#080707" width="53.689" height="16.529"/>
	<path fill="#080707" d="M423.84,400.971h2.512v2.894c0.238,0.149,0.533,0.267,0.858,0.354c0.325,0.12,0.709,0.211,1.093,0.237
		c0.386,0.063,0.769,0.119,1.154,0.15c0.383,0.026,0.739,0.026,1.093,0.026c1.509,0,2.75-0.325,3.697-1.033
		c0.945-0.68,1.389-1.684,1.389-2.954c0-0.712-0.179-1.304-0.502-1.745c-0.327-0.474-0.769-0.857-1.331-1.153
		c-0.533-0.326-1.183-0.564-1.894-0.769c-0.709-0.208-1.418-0.385-2.158-0.592s-1.478-0.443-2.158-0.711
		c-0.71-0.265-1.331-0.592-1.891-1.034c-0.533-0.415-0.977-0.976-1.331-1.598c-0.355-0.646-0.503-1.449-0.503-2.394
		c0-0.65,0.117-1.33,0.325-2.069c0.236-0.71,0.65-1.36,1.241-1.982c0.592-0.591,1.391-1.091,2.456-1.507
		c1.034-0.385,2.334-0.591,3.96-0.591c0.386,0,0.828,0.03,1.36,0.089c0.503,0.06,1.036,0.117,1.596,0.207
		c0.532,0.089,1.065,0.178,1.568,0.325c0.501,0.147,0.916,0.266,1.24,0.416v4.314h-2.393v-2.662
		c-0.207-0.089-0.445-0.146-0.769-0.234c-0.295-0.057-0.621-0.12-0.946-0.177c-0.355-0.062-0.68-0.092-1.006-0.119
		c-0.354-0.062-0.621-0.062-0.856-0.062c-0.591,0-1.153,0.062-1.743,0.181c-0.593,0.12-1.096,0.322-1.569,0.587
		c-0.472,0.298-0.857,0.682-1.152,1.154c-0.296,0.477-0.443,1.067-0.443,1.776c0,0.916,0.294,1.598,0.857,2.069
		c0.591,0.473,1.3,0.856,2.188,1.181c0.858,0.299,1.804,0.563,2.838,0.8c1.035,0.237,1.98,0.592,2.837,1.033
		c0.888,0.415,1.599,1.034,2.188,1.775c0.561,0.769,0.858,1.774,0.858,3.104c0,1.181-0.237,2.188-0.709,3.015
		c-0.474,0.798-1.065,1.478-1.833,1.98c-0.77,0.535-1.626,0.889-2.632,1.122c-0.975,0.239-1.98,0.328-3.044,0.328
		c-0.887,0-1.656-0.031-2.336-0.12c-0.65-0.089-1.241-0.208-1.745-0.296c-0.532-0.118-0.945-0.233-1.331-0.354
		c-0.383-0.118-0.708-0.207-1.003-0.295v-4.67H423.84z"/>
	<path fill="#080707" d="M447.432,404.812c0.445,0,0.918-0.06,1.419-0.236c0.532-0.146,1.005-0.444,1.479-0.856
		c0.473-0.415,0.857-0.976,1.182-1.714c0.326-0.741,0.474-1.714,0.474-2.898c-0.947,0-1.863,0.026-2.75,0.059
		c-0.916,0.03-1.684,0.146-2.393,0.326c-0.71,0.208-1.272,0.474-1.716,0.888c-0.413,0.414-0.651,0.973-0.651,1.715
		c0,0.914,0.297,1.595,0.857,2.037C445.896,404.575,446.604,404.812,447.432,404.812 M444.802,395.234h-2.277v-3.816
		c0.888-0.324,1.773-0.62,2.69-0.856c0.917-0.235,1.863-0.354,2.839-0.354c1.035,0,1.921,0.118,2.689,0.295
		c0.769,0.206,1.449,0.533,1.982,0.975c0.532,0.443,0.916,1.036,1.183,1.776c0.265,0.708,0.413,1.596,0.413,2.629
		c0,0.354-0.029,0.857-0.029,1.511c-0.029,0.649-0.029,1.387-0.059,2.187c-0.03,0.799-0.03,1.656-0.06,2.483
		c-0.028,0.856-0.028,1.625-0.028,2.336h2.276v1.921h-4.552v-0.653c0-0.469,0.03-0.972,0.118-1.507
		c0.059-0.53,0.147-0.976,0.207-1.27h-0.059c-0.474,1.27-1.122,2.247-1.952,2.868c-0.827,0.618-1.949,0.915-3.369,0.915
		c-0.443,0-0.947-0.058-1.538-0.178c-0.56-0.119-1.123-0.325-1.596-0.649c-0.503-0.327-0.917-0.798-1.272-1.36
		c-0.324-0.591-0.501-1.359-0.501-2.335c0-1.092,0.265-1.979,0.827-2.629c0.563-0.654,1.301-1.127,2.218-1.45
		c0.916-0.325,1.98-0.533,3.192-0.622c1.212-0.088,2.455-0.146,3.785-0.146v-1.156c0-1.476-0.296-2.541-0.888-3.163
		c-0.589-0.622-1.478-0.944-2.748-0.944c-0.474,0-1.006,0.057-1.657,0.146c-0.68,0.089-1.271,0.268-1.861,0.504v2.544H444.802z"/>
	<polygon fill="#080707" points="461.416,384.737 458.343,384.737 458.343,382.817 463.9,382.817 463.783,404.456 466.295,404.456 
		466.295,406.377 459.023,406.377 459.023,404.456 461.269,404.456 	"/>
	<path fill="#080707" d="M471.261,398.483c0,0.858,0.118,1.656,0.327,2.427c0.206,0.769,0.531,1.391,0.946,1.951
		c0.415,0.53,0.944,0.976,1.596,1.329c0.649,0.328,1.389,0.505,2.215,0.505c0.831,0,1.569-0.177,2.218-0.505
		c0.65-0.326,1.184-0.768,1.598-1.329c0.443-0.561,0.739-1.215,0.944-1.951c0.208-0.771,0.298-1.568,0.298-2.427
		c0-0.856-0.091-1.683-0.298-2.423c-0.205-0.737-0.531-1.419-0.944-1.95c-0.415-0.563-0.948-1.006-1.598-1.332
		c-0.649-0.324-1.387-0.503-2.218-0.503c-0.855,0-1.566,0.149-2.215,0.503c-0.652,0.326-1.182,0.769-1.596,1.332
		c-0.415,0.531-0.74,1.213-0.946,1.95C471.379,396.801,471.261,397.598,471.261,398.483 M468.689,398.9
		c0-1.242,0.178-2.426,0.503-3.489c0.355-1.096,0.856-1.98,1.507-2.748c0.65-0.769,1.449-1.361,2.396-1.807
		c0.945-0.443,2.04-0.648,3.221-0.648c1.212,0,2.278,0.205,3.253,0.59c0.946,0.385,1.743,0.946,2.394,1.656
		c0.68,0.712,1.154,1.538,1.509,2.484c0.354,0.977,0.531,2.01,0.531,3.134c0,1.27-0.177,2.421-0.531,3.486
		c-0.355,1.064-0.829,1.98-1.509,2.72c-0.65,0.771-1.448,1.389-2.394,1.834c-0.945,0.446-2.041,0.649-3.253,0.649
		c-1.21,0-2.306-0.177-3.221-0.591c-0.947-0.381-1.775-0.916-2.396-1.627c-0.651-0.707-1.152-1.536-1.507-2.48
		C468.837,401.087,468.689,400.053,468.689,398.9"/>
	<path fill="#080707" d="M497.87,404.456h2.01c0-1.211,0.03-2.451,0.06-3.754c0.06-1.242,0.06-2.541,0.06-3.813
		c0-0.388,0-0.829-0.06-1.36c-0.06-0.534-0.176-1.034-0.414-1.507c-0.207-0.476-0.591-0.889-1.063-1.214
		c-0.474-0.323-1.154-0.503-2.04-0.503c-0.533,0-1.125,0.092-1.655,0.296c-0.563,0.177-1.065,0.503-1.509,0.945
		c-0.443,0.415-0.798,1.037-1.093,1.745c-0.267,0.74-0.416,1.625-0.416,2.692l-0.058,6.534h2.306v1.918h-6.858v-1.918h2.041
		l0.118-11.944h-2.543v-1.924h5.084c0,0.298-0.029,0.651-0.029,1.036c0,0.354-0.029,0.65-0.088,0.888l-0.237,1.596h0.06
		c0.177-0.593,0.443-1.123,0.827-1.596c0.386-0.477,0.827-0.888,1.331-1.244c0.503-0.324,1.065-0.593,1.656-0.769
		c0.591-0.178,1.212-0.265,1.804-0.265c1.063,0,1.98,0.176,2.661,0.501c0.709,0.354,1.269,0.769,1.685,1.33
		c0.414,0.563,0.709,1.184,0.827,1.895c0.148,0.708,0.238,1.445,0.238,2.187c0,1.36-0.03,2.779-0.061,4.229
		c-0.028,1.479-0.059,2.837-0.059,4.049h2.337v1.923h-6.859v-1.953H497.87z"/>
	<path fill="#080707" d="M518.862,394.938h-2.278l-0.119-2.248c-0.147-0.116-0.325-0.205-0.592-0.293
		c-0.266-0.092-0.501-0.15-0.768-0.181c-0.266-0.058-0.532-0.058-0.77-0.089c-0.265,0-0.472,0-0.65,0
		c-0.413,0-0.857,0.031-1.27,0.119c-0.444,0.059-0.829,0.178-1.183,0.384c-0.356,0.178-0.622,0.446-0.857,0.739
		c-0.239,0.296-0.356,0.71-0.356,1.184c0,0.415,0.118,0.77,0.297,1.064c0.177,0.297,0.443,0.53,0.769,0.738
		c0.324,0.207,0.738,0.384,1.21,0.503c0.474,0.119,1.006,0.234,1.597,0.323c2.009,0.356,3.459,0.86,4.345,1.54
		c0.917,0.678,1.361,1.656,1.361,2.987c0,0.707-0.119,1.387-0.356,2.009c-0.235,0.589-0.651,1.121-1.152,1.568
		c-0.503,0.441-1.183,0.825-2.01,1.061c-0.828,0.269-1.804,0.388-2.926,0.388c-0.445,0-0.918-0.03-1.45-0.089
		c-0.531-0.03-1.034-0.118-1.538-0.177c-0.501-0.093-0.945-0.181-1.418-0.326c-0.443-0.12-0.799-0.238-1.034-0.388l-0.118-4.017
		h2.276l0.118,2.363c0.268,0.116,0.533,0.205,0.828,0.297c0.326,0.087,0.622,0.145,0.947,0.207c0.325,0.058,0.62,0.116,0.945,0.146
		c0.324,0.032,0.592,0.06,0.857,0.06c0.415,0,0.828-0.06,1.272-0.147c0.444-0.089,0.827-0.234,1.183-0.474
		c0.354-0.207,0.651-0.472,0.856-0.799c0.237-0.322,0.325-0.736,0.325-1.21c0-0.384-0.088-0.711-0.265-1.007
		c-0.207-0.265-0.445-0.504-0.769-0.682c-0.327-0.176-0.651-0.321-1.064-0.44s-0.799-0.239-1.241-0.327
		c-1.065-0.234-1.981-0.473-2.778-0.68c-0.8-0.234-1.449-0.531-1.982-0.885c-0.532-0.357-0.946-0.768-1.212-1.271
		c-0.265-0.503-0.414-1.126-0.414-1.921c0-0.622,0.119-1.245,0.325-1.803c0.236-0.564,0.591-1.068,1.094-1.51
		c0.472-0.443,1.122-0.769,1.92-1.035c0.769-0.237,1.745-0.384,2.897-0.384c0.326,0,0.71,0.03,1.153,0.06
		c0.444,0.06,0.916,0.116,1.359,0.206c0.474,0.059,0.917,0.178,1.331,0.295c0.442,0.12,0.828,0.238,1.123,0.385L518.862,394.938z"/>
	<polygon fill="#080707" points="529.386,399.669 522.675,399.669 522.675,397.598 529.386,397.598 529.386,390.856 
		531.454,390.856 531.454,397.598 538.167,397.598 538.167,399.669 531.454,399.669 531.454,406.377 529.386,406.377 	"/>
	<path fill="#080707" d="M546,395.734h2.897c1.448,0,2.602-0.382,3.37-1.181c0.769-0.801,1.184-1.891,1.184-3.252
		c0-0.945-0.177-1.744-0.504-2.366c-0.354-0.649-0.797-1.123-1.419-1.477c-0.532-0.295-1.065-0.445-1.596-0.503
		c-0.532-0.057-1.182-0.057-1.951-0.057h-1.922L546,395.734z M543.4,386.867h-2.455v-1.952h7.392c1.092,0,2.067,0.088,2.838,0.236
		c0.768,0.148,1.478,0.387,2.127,0.739c0.858,0.473,1.508,1.123,2.009,1.98c0.504,0.856,0.74,1.893,0.74,3.105
		c0,1.094-0.177,2.04-0.531,2.896c-0.356,0.827-0.859,1.538-1.42,2.099c-0.591,0.562-1.271,0.977-2.069,1.271
		c-0.769,0.296-1.598,0.443-2.455,0.443H546l-0.029,6.77h2.72v1.921h-7.716v-1.921h2.335L543.4,386.867z"/>
	<path fill="#080707" d="M561.019,392.485h-2.689v-1.924h5.203v0.856c0,0.477-0.03,1.125-0.118,1.894
		c-0.059,0.799-0.147,1.538-0.206,2.187h0.089c0.147-0.56,0.324-1.183,0.53-1.802c0.208-0.619,0.532-1.183,0.917-1.687
		c0.384-0.504,0.916-0.916,1.508-1.242c0.621-0.323,1.419-0.5,2.423-0.5c0.03,0,0.15,0.029,0.297,0.029
		c0.177,0,0.324,0.029,0.502,0.06c0.178,0.027,0.355,0.057,0.502,0.088c0.119,0.028,0.237,0.059,0.268,0.089l-0.237,2.275
		c-0.236-0.089-0.501-0.146-0.798-0.178c-0.294-0.057-0.622-0.057-0.916-0.057c-0.828,0-1.507,0.176-2.099,0.53
		c-0.593,0.354-1.095,0.83-1.449,1.391c-0.385,0.589-0.68,1.212-0.857,1.949c-0.207,0.711-0.296,1.419-0.325,2.098l-0.118,5.914
		h2.661v1.921h-7.421v-1.921h2.246L561.019,392.485z"/>
	<path fill="#080707" d="M573.94,398.483c0,0.858,0.118,1.656,0.324,2.427c0.208,0.769,0.532,1.391,0.946,1.951
		c0.414,0.53,0.947,0.976,1.598,1.329c0.649,0.328,1.388,0.505,2.216,0.505c0.858,0,1.567-0.177,2.218-0.505
		c0.65-0.326,1.153-0.768,1.596-1.329c0.415-0.561,0.709-1.215,0.947-1.951c0.207-0.771,0.295-1.568,0.295-2.427
		c0-0.856-0.118-1.683-0.295-2.423c-0.238-0.737-0.533-1.419-0.947-1.95c-0.442-0.563-0.945-1.006-1.596-1.332
		c-0.65-0.324-1.359-0.503-2.218-0.503c-0.828,0-1.567,0.149-2.216,0.503c-0.651,0.326-1.184,0.769-1.598,1.332
		c-0.414,0.531-0.737,1.213-0.946,1.95C574.058,396.801,573.94,397.598,573.94,398.483 M571.367,398.9
		c0-1.242,0.177-2.426,0.532-3.489c0.325-1.096,0.827-1.98,1.507-2.748c0.652-0.769,1.45-1.361,2.395-1.807
		c0.948-0.443,2.01-0.648,3.224-0.648c1.213,0,2.276,0.205,3.223,0.59c0.946,0.385,1.773,0.946,2.395,1.656
		c0.651,0.712,1.154,1.538,1.508,2.484c0.355,0.977,0.532,2.01,0.532,3.134c0,1.27-0.177,2.421-0.532,3.486
		c-0.354,1.064-0.857,1.98-1.508,2.72c-0.649,0.771-1.449,1.389-2.395,1.834c-0.947,0.446-2.039,0.649-3.223,0.649
		c-1.214,0-2.276-0.177-3.224-0.591c-0.945-0.381-1.742-0.916-2.395-1.627c-0.649-0.707-1.153-1.536-1.507-2.48
		C571.514,401.087,571.367,400.053,571.367,398.9"/>
	<path fill="#080707" d="M601.434,392.985c-0.146-0.058-0.297-0.119-0.443-0.207c-0.176-0.059-0.354-0.147-0.591-0.235
		c-0.236-0.089-0.501-0.146-0.829-0.206c-0.323-0.062-0.737-0.09-1.24-0.09c-1.863,0-3.34,0.592-4.376,1.775
		c-1.033,1.181-1.567,2.867-1.567,5.11c0,0.743,0.088,1.449,0.265,2.104c0.18,0.68,0.445,1.241,0.8,1.771
		c0.383,0.503,0.829,0.918,1.359,1.211c0.562,0.3,1.213,0.445,2.01,0.445c0.978,0,1.744-0.208,2.337-0.621
		c0.589-0.385,1.063-0.916,1.391-1.565c0.322-0.65,0.56-1.36,0.68-2.16c0.146-0.795,0.205-1.565,0.205-2.336V392.985z
		 M603.916,404.456h2.366v1.921h-4.908c0-0.648,0.032-1.239,0.089-1.802c0.061-0.532,0.119-1.007,0.208-1.391l-0.06-0.058
		c-0.148,0.412-0.354,0.826-0.621,1.24c-0.266,0.444-0.622,0.8-1.064,1.152c-0.444,0.358-0.947,0.651-1.539,0.857
		c-0.588,0.239-1.298,0.328-2.098,0.328c-0.887,0-1.744-0.146-2.542-0.474c-0.798-0.296-1.507-0.799-2.099-1.42
		c-0.591-0.621-1.065-1.449-1.389-2.395c-0.356-0.946-0.533-2.068-0.533-3.34c0-1.303,0.177-2.514,0.533-3.609
		c0.354-1.092,0.886-2.037,1.595-2.837c0.71-0.799,1.567-1.39,2.632-1.833c1.035-0.441,2.247-0.651,3.637-0.651
		c0.208,0,0.474,0,0.768,0.03c0.297,0.031,0.592,0.058,0.917,0.12c0.326,0.06,0.622,0.147,0.887,0.236
		c0.296,0.088,0.503,0.204,0.712,0.323l0.057-6.149h-3.164v-1.92h5.707L603.916,404.456z"/>
	<path fill="#080707" d="M608.412,390.562h5.055c0,1.448-0.029,2.927-0.061,4.407c-0.057,1.506-0.057,3.132-0.057,4.965
		c0,0.56,0.028,1.153,0.088,1.713c0.09,0.563,0.235,1.065,0.471,1.538c0.238,0.443,0.592,0.829,1.066,1.094
		c0.444,0.266,1.064,0.417,1.832,0.417c0.77,0,1.391-0.12,1.922-0.388c0.533-0.265,0.977-0.589,1.303-0.974
		c0.324-0.414,0.62-0.887,0.797-1.391c0.207-0.529,0.326-1.033,0.414-1.595c0.09-0.562,0.148-1.064,0.148-1.568
		c0.029-0.503,0.029-0.945,0.029-1.33v-4.907h-2.482v-1.922h5.086l-0.119,13.897h2.217v1.918h-4.73c0-0.324,0-0.646,0.029-1.004
		c0-0.354,0.029-0.681,0.059-0.889l0.236-1.594h-0.057c-0.18,0.473-0.416,0.945-0.742,1.389c-0.324,0.473-0.709,0.886-1.182,1.239
		c-0.443,0.357-0.977,0.653-1.537,0.892c-0.561,0.235-1.213,0.324-1.861,0.324c-1.156,0-2.071-0.178-2.781-0.505
		c-0.709-0.354-1.271-0.799-1.684-1.39c-0.414-0.592-0.711-1.27-0.859-2.038c-0.146-0.798-0.235-1.625-0.235-2.544
		c0-1.449,0-2.809,0.06-4.049c0.029-1.241,0.059-2.483,0.059-3.726h-2.541v-1.981H608.412z"/>
	<path fill="#080707" d="M641.582,405.993c-0.619,0.178-1.301,0.354-2.098,0.535c-0.768,0.146-1.596,0.233-2.486,0.233
		c-1.564,0-2.895-0.233-3.961-0.706c-1.033-0.478-1.891-1.096-2.512-1.865c-0.652-0.768-1.092-1.655-1.391-2.659
		c-0.295-1.007-0.414-2.009-0.414-3.048c0-1.505,0.238-2.776,0.742-3.842c0.5-1.064,1.123-1.922,1.891-2.544
		c0.768-0.649,1.627-1.121,2.572-1.417c0.945-0.297,1.863-0.443,2.719-0.443c0.889,0,1.746,0.06,2.602,0.176
		c0.859,0.12,1.717,0.324,2.514,0.623v4.14h-2.275v-2.485c-0.178-0.06-0.385-0.116-0.592-0.147c-0.236-0.029-0.475-0.058-0.74-0.118
		c-0.238-0.027-0.475-0.062-0.707-0.088c-0.236-0.031-0.416-0.031-0.623-0.031c-1.152,0-2.068,0.208-2.809,0.622
		c-0.711,0.415-1.271,0.918-1.684,1.537c-0.416,0.619-0.65,1.27-0.828,2.01c-0.148,0.738-0.209,1.389-0.209,2.04
		c0,0.146,0,0.386,0.031,0.738c0.029,0.357,0.088,0.77,0.205,1.214c0.121,0.474,0.297,0.947,0.563,1.449
		c0.238,0.501,0.592,0.945,1.035,1.358c0.443,0.414,1.006,0.739,1.686,1.004c0.68,0.266,1.506,0.417,2.482,0.417
		c0.77,0,1.51-0.089,2.189-0.296c0.68-0.181,1.391-0.386,2.098-0.622V405.993z"/>
	<path fill="#080707" d="M644.391,390.562h2.543l0.119-3.844l2.512-0.177l-0.117,4.021h4.967v1.924h-4.998
		c-0.057,1.33-0.088,2.66-0.088,3.959c0,1.33-0.029,2.633-0.029,3.961c0,0.593,0.029,1.126,0.029,1.627
		c0.031,0.503,0.119,0.948,0.266,1.359c0.176,0.386,0.387,0.681,0.711,0.916c0.324,0.236,0.797,0.325,1.418,0.325
		c0.65,0,1.244-0.089,1.805-0.203c0.561-0.151,0.975-0.299,1.332-0.446l-0.09,2.01c-0.416,0.207-0.918,0.384-1.598,0.503
		c-0.65,0.15-1.301,0.209-1.98,0.209c-1.094,0-1.951-0.177-2.543-0.534c-0.621-0.324-1.035-0.77-1.33-1.271
		c-0.266-0.532-0.443-1.092-0.475-1.685c-0.029-0.592-0.057-1.151-0.057-1.684c0-0.472,0-1.126,0.027-1.921
		c0-0.799,0-1.598,0.029-2.486c0-0.888,0.031-1.713,0.061-2.54c0-0.831,0.029-1.54,0.029-2.13h-2.512v-1.893H644.391z"/>
	<path fill="#080707" d="M668.131,394.938h-2.277l-0.145-2.248c-0.119-0.116-0.328-0.205-0.563-0.293
		c-0.268-0.061-0.504-0.15-0.77-0.181c-0.266-0.058-0.533-0.058-0.768-0.089c-0.266,0-0.475,0-0.652,0
		c-0.414,0-0.799,0.031-1.24,0.119c-0.443,0.059-0.828,0.178-1.154,0.384c-0.355,0.178-0.648,0.446-0.887,0.739
		c-0.236,0.296-0.354,0.71-0.354,1.184c0,0.415,0.088,0.77,0.295,1.064c0.178,0.297,0.443,0.53,0.768,0.738
		c0.326,0.207,0.74,0.384,1.213,0.503c0.443,0.119,1.006,0.234,1.596,0.323c2.01,0.356,3.459,0.86,4.348,1.54
		c0.887,0.678,1.357,1.656,1.357,2.987c0,0.707-0.117,1.387-0.383,2.009c-0.236,0.589-0.621,1.121-1.154,1.568
		c-0.531,0.441-1.18,0.825-2.008,1.061c-0.83,0.269-1.805,0.388-2.93,0.388c-0.412,0-0.916-0.03-1.445-0.089
		c-0.535-0.03-1.037-0.118-1.539-0.177c-0.504-0.093-0.975-0.181-1.42-0.326c-0.443-0.12-0.768-0.238-1.031-0.388l-0.123-4.017
		h2.279l0.117,2.363c0.236,0.116,0.533,0.205,0.828,0.297c0.295,0.087,0.594,0.145,0.916,0.207c0.326,0.058,0.621,0.116,0.947,0.146
		c0.324,0.032,0.621,0.06,0.885,0.06c0.418,0,0.828-0.06,1.244-0.147c0.412-0.089,0.828-0.234,1.18-0.474
		c0.387-0.207,0.652-0.472,0.889-0.799c0.209-0.322,0.326-0.736,0.326-1.21c0-0.384-0.088-0.711-0.266-1.007
		c-0.18-0.265-0.416-0.504-0.74-0.682c-0.297-0.176-0.68-0.321-1.064-0.44c-0.414-0.119-0.828-0.239-1.244-0.327
		c-1.063-0.234-1.977-0.473-2.777-0.68c-0.797-0.234-1.449-0.531-1.98-0.885c-0.531-0.357-0.947-0.768-1.211-1.271
		c-0.268-0.503-0.387-1.126-0.387-1.921c0-0.622,0.119-1.245,0.326-1.803c0.236-0.564,0.592-1.068,1.094-1.51
		c0.473-0.443,1.125-0.769,1.922-1.035c0.77-0.237,1.746-0.384,2.898-0.384c0.326,0,0.738,0.03,1.182,0.06
		c0.443,0.06,0.918,0.116,1.361,0.206c0.473,0.059,0.914,0.178,1.359,0.295c0.443,0.12,0.799,0.238,1.123,0.385L668.131,394.938z"/>
	<polygon fill="#080707" points="678.627,399.669 671.916,399.669 671.916,397.598 678.627,397.598 678.627,390.856 
		680.725,390.856 680.725,397.598 687.436,397.598 687.436,399.669 680.725,399.669 680.725,406.377 678.627,406.377 	"/>
	<polygon fill="#080707" points="692.641,386.867 690.189,386.867 690.189,384.915 704.674,384.915 704.674,389.882 
		702.426,389.882 702.426,386.867 695.33,386.867 695.273,394.404 702.012,394.404 702.012,396.325 695.273,396.325 
		695.213,404.456 702.633,404.456 702.779,401.117 705.059,401.117 704.879,406.377 690.189,406.377 690.189,404.456 
		692.523,404.456 	"/>
	<path fill="#080707" d="M707.422,390.562h6.859v1.924h-2.012v0.058c0.119,0.031,0.207,0.12,0.266,0.177
		c0.061,0.059,0.15,0.177,0.24,0.266l3.043,3.843l3.104-3.843c0.092-0.119,0.148-0.207,0.238-0.266
		c0.059-0.089,0.146-0.146,0.266-0.177v-0.058h-2.188v-1.924h6.297v1.924h-1.805l-4.699,5.645l5.025,6.326h1.893v1.921h-6.859
		v-1.921h2.129v-0.057c-0.117-0.032-0.178-0.121-0.268-0.181c-0.059-0.088-0.146-0.205-0.236-0.293l-3.369-4.227l-3.34,4.227
		c-0.09,0.088-0.148,0.177-0.236,0.293c-0.061,0.06-0.15,0.12-0.268,0.181v0.057h2.041v1.921h-6.299v-1.921h1.803l5.117-6.148
		l-4.73-5.822h-1.982v-1.924H707.422z"/>
	<path fill="#080707" d="M730.689,403.926c0.68,0.234,1.271,0.413,1.773,0.561c0.475,0.12,1.035,0.178,1.627,0.178
		c1.033,0,1.951-0.178,2.66-0.592c0.74-0.384,1.361-0.888,1.832-1.506c0.475-0.623,0.83-1.33,1.037-2.161
		c0.205-0.825,0.322-1.653,0.322-2.513c0-0.976-0.117-1.802-0.354-2.54c-0.236-0.711-0.561-1.272-0.947-1.745
		c-0.41-0.441-0.887-0.799-1.418-1.006c-0.531-0.204-1.123-0.326-1.713-0.326c-0.563,0-1.096,0.091-1.654,0.268
		c-0.564,0.177-1.039,0.501-1.512,0.945c-0.441,0.416-0.797,1.035-1.063,1.746c-0.268,0.737-0.443,1.625-0.443,2.689
		L730.689,403.926z M728.324,392.485h-2.748v-1.924h5.201v0.563c0,0.178,0,0.413-0.029,0.682c-0.029,0.265-0.029,0.531-0.059,0.825
		c-0.031,0.266-0.059,0.535-0.117,0.8c-0.029,0.266-0.09,0.474-0.09,0.649h0.061c0.176-0.562,0.414-1.063,0.738-1.537
		c0.324-0.473,0.768-0.887,1.242-1.241c0.5-0.354,1.063-0.621,1.654-0.799c0.623-0.177,1.271-0.295,1.951-0.295
		c1.094,0,2.07,0.205,2.867,0.59c0.801,0.415,1.449,0.946,1.984,1.627c0.531,0.709,0.914,1.51,1.18,2.456
		c0.268,0.944,0.385,1.92,0.385,2.954c0,0.945-0.117,1.922-0.385,2.986c-0.266,1.065-0.74,2.01-1.391,2.897
		c-0.65,0.856-1.506,1.594-2.629,2.159c-1.096,0.592-2.455,0.857-4.109,0.857c-0.564,0-1.127-0.062-1.688-0.15
		c-0.59-0.089-1.092-0.237-1.566-0.385l-0.059,5.947h2.66v1.917h-7.422v-1.917h2.279L728.324,392.485z"/>
	<path fill="#080707" d="M756.971,396.74c0-0.62-0.088-1.184-0.295-1.771c-0.205-0.564-0.475-1.064-0.828-1.48
		c-0.383-0.411-0.795-0.769-1.33-1.003c-0.5-0.238-1.092-0.357-1.773-0.357c-0.68,0-1.299,0.119-1.863,0.357
		c-0.559,0.234-1.033,0.559-1.447,0.973c-0.414,0.415-0.738,0.918-0.977,1.48c-0.236,0.56-0.383,1.152-0.412,1.802H756.971z
		 M748.016,398.692c0,0.83,0.117,1.567,0.354,2.306c0.205,0.712,0.533,1.36,1.008,1.891c0.471,0.534,1.09,0.976,1.859,1.271
		c0.77,0.326,1.715,0.473,2.838,0.473c0.857,0,1.717-0.114,2.543-0.325c0.828-0.235,1.568-0.5,2.217-0.856l-0.086,2.189
		c-0.299,0.149-0.652,0.265-1.066,0.415c-0.443,0.145-0.887,0.265-1.357,0.354c-0.477,0.087-0.949,0.176-1.453,0.237
		c-0.5,0.059-0.943,0.089-1.299,0.089c-2.514,0-4.465-0.68-5.914-2.04c-1.447-1.361-2.188-3.432-2.188-6.181
		c0-1.152,0.15-2.246,0.475-3.251c0.295-1.037,0.768-1.894,1.391-2.662c0.621-0.739,1.389-1.329,2.305-1.745
		c0.916-0.412,1.98-0.648,3.162-0.648c1.035,0,1.924,0.148,2.691,0.413c0.738,0.294,1.359,0.681,1.863,1.153
		c0.502,0.473,0.914,1.004,1.213,1.625c0.295,0.623,0.529,1.242,0.68,1.864c0.146,0.619,0.266,1.238,0.324,1.83
		c0.059,0.593,0.059,1.125,0.059,1.629h-11.617V398.692z"/>
	<path fill="#080707" d="M764.84,392.485h-2.693v-1.924h5.203v0.856c0,0.477-0.029,1.125-0.117,1.894
		c-0.061,0.799-0.148,1.538-0.207,2.187h0.088c0.146-0.56,0.324-1.183,0.563-1.802c0.207-0.619,0.502-1.183,0.887-1.687
		c0.383-0.504,0.885-0.916,1.508-1.242c0.621-0.323,1.418-0.5,2.395-0.5c0.057,0,0.178,0.029,0.324,0.029
		c0.148,0,0.326,0.029,0.504,0.06c0.176,0.027,0.354,0.057,0.502,0.088c0.117,0.028,0.236,0.059,0.266,0.089l-0.238,2.275
		c-0.234-0.089-0.502-0.146-0.797-0.178c-0.295-0.057-0.592-0.057-0.914-0.057c-0.801,0-1.537,0.176-2.102,0.53
		c-0.592,0.354-1.094,0.83-1.447,1.391c-0.385,0.589-0.65,1.212-0.857,1.949c-0.18,0.711-0.297,1.419-0.297,2.098l-0.117,5.914h2.66
		v1.921h-7.42v-1.921h2.217L764.84,392.485z"/>
	<path fill="#080707" d="M775.242,390.562h2.543l0.148-3.844l2.514-0.177l-0.119,4.021h4.967v1.924h-4.996
		c-0.027,1.33-0.061,2.66-0.09,3.959c-0.029,1.33-0.029,2.633-0.029,3.961c0,0.593,0,1.126,0.029,1.627
		c0.029,0.503,0.119,0.948,0.268,1.359c0.148,0.386,0.383,0.681,0.709,0.916c0.354,0.236,0.799,0.325,1.42,0.325
		c0.65,0,1.271-0.089,1.803-0.203c0.531-0.151,0.975-0.299,1.328-0.446l-0.088,2.01c-0.414,0.207-0.945,0.384-1.594,0.503
		c-0.652,0.15-1.301,0.209-1.953,0.209c-1.092,0-1.951-0.177-2.572-0.534c-0.617-0.324-1.033-0.77-1.332-1.271
		c-0.293-0.532-0.441-1.092-0.471-1.685c-0.059-0.592-0.059-1.151-0.059-1.684c0-0.472,0-1.126,0-1.921
		c0.029-0.799,0.029-1.598,0.029-2.486c0-0.888,0-1.713,0.029-2.54c0.029-0.831,0.029-1.54,0.029-2.13h-2.514V390.562
		L775.242,390.562z"/>
	<path fill="#080707" d="M788.873,384.47c0-0.53,0.178-0.973,0.531-1.36c0.385-0.354,0.83-0.53,1.359-0.53
		c0.533,0,0.977,0.177,1.361,0.53c0.383,0.388,0.561,0.83,0.561,1.36c0,0.533-0.207,0.979-0.561,1.333
		c-0.385,0.385-0.828,0.561-1.361,0.561c-0.529,0-0.975-0.176-1.359-0.561C789.051,385.449,788.873,385.003,788.873,384.47
		 M789.818,392.485h-2.896v-1.924h5.41l-0.119,13.895h2.514v1.921h-7.541v-1.921h2.516L789.818,392.485z"/>
	<path fill="#080707" d="M808.621,394.938h-2.277l-0.117-2.248c-0.148-0.116-0.326-0.205-0.592-0.293
		c-0.234-0.061-0.502-0.15-0.768-0.181c-0.268-0.058-0.502-0.058-0.77-0.089c-0.266,0-0.473,0-0.65,0
		c-0.414,0-0.828,0.031-1.271,0.119c-0.414,0.059-0.828,0.178-1.152,0.384c-0.355,0.178-0.65,0.446-0.855,0.739
		c-0.238,0.296-0.355,0.71-0.355,1.184c0,0.415,0.117,0.77,0.295,1.064c0.178,0.297,0.441,0.53,0.797,0.738
		c0.324,0.207,0.742,0.384,1.213,0.503c0.473,0.119,1.006,0.234,1.598,0.323c2.01,0.356,3.459,0.86,4.375,1.54
		c0.885,0.678,1.359,1.656,1.359,2.987c0,0.707-0.146,1.387-0.354,2.009c-0.266,0.589-0.652,1.121-1.154,1.568
		c-0.502,0.441-1.184,0.825-2.012,1.061c-0.826,0.269-1.801,0.388-2.955,0.388c-0.443,0-0.914-0.03-1.447-0.089
		c-0.535-0.03-1.037-0.118-1.539-0.177c-0.5-0.093-0.975-0.181-1.42-0.326c-0.441-0.12-0.768-0.238-1.033-0.388l-0.117-4.017h2.246
		l0.117,2.363c0.238,0.116,0.531,0.205,0.828,0.297c0.295,0.087,0.619,0.145,0.918,0.207c0.324,0.058,0.621,0.116,0.943,0.146
		c0.328,0.032,0.623,0.06,0.857,0.06c0.416,0,0.828-0.06,1.271-0.147c0.445-0.089,0.83-0.234,1.184-0.474
		c0.354-0.207,0.65-0.472,0.857-0.799c0.207-0.322,0.354-0.736,0.354-1.21c0-0.384-0.088-0.711-0.295-1.007
		c-0.176-0.265-0.445-0.504-0.77-0.682c-0.324-0.176-0.648-0.321-1.063-0.44c-0.383-0.119-0.799-0.239-1.242-0.327
		c-1.064-0.234-1.979-0.473-2.777-0.68c-0.801-0.234-1.449-0.531-1.982-0.885c-0.533-0.357-0.914-0.768-1.182-1.271
		c-0.266-0.503-0.414-1.126-0.414-1.921c0-0.622,0.119-1.245,0.324-1.803c0.234-0.564,0.592-1.068,1.064-1.51
		c0.473-0.443,1.123-0.769,1.92-1.035c0.77-0.237,1.748-0.384,2.898-0.384c0.326,0,0.709,0.03,1.184,0.06
		c0.443,0.06,0.887,0.116,1.359,0.206c0.475,0.059,0.916,0.178,1.33,0.295c0.445,0.12,0.828,0.238,1.127,0.385L808.621,394.938z"/>
	<path fill="#080707" d="M823.965,396.74c0-0.62-0.117-1.184-0.293-1.771c-0.209-0.564-0.475-1.064-0.828-1.48
		c-0.389-0.411-0.799-0.769-1.334-1.003c-0.531-0.238-1.123-0.357-1.773-0.357c-0.68,0-1.299,0.119-1.861,0.357
		c-0.563,0.234-1.063,0.559-1.477,0.973c-0.416,0.415-0.74,0.918-0.979,1.48c-0.232,0.56-0.354,1.152-0.412,1.802H823.965z
		 M815.008,398.692c0.029,0.83,0.146,1.567,0.355,2.306c0.207,0.712,0.531,1.36,1.004,1.891c0.473,0.534,1.094,0.976,1.834,1.271
		c0.768,0.326,1.715,0.473,2.838,0.473c0.855,0,1.715-0.114,2.543-0.325c0.826-0.235,1.596-0.5,2.215-0.856l-0.088,2.189
		c-0.266,0.149-0.621,0.265-1.064,0.415c-0.412,0.145-0.885,0.265-1.359,0.354c-0.471,0.087-0.945,0.176-1.479,0.237
		c-0.473,0.059-0.916,0.089-1.299,0.089c-2.484,0-4.465-0.68-5.914-2.04c-1.449-1.361-2.189-3.432-2.189-6.181
		c0-1.152,0.148-2.246,0.475-3.251c0.324-1.037,0.77-1.894,1.389-2.662c0.623-0.739,1.361-1.329,2.279-1.745
		c0.914-0.412,1.98-0.648,3.189-0.648c1.037,0,1.951,0.148,2.691,0.413c0.738,0.294,1.361,0.681,1.863,1.153
		s0.916,1.004,1.213,1.625c0.324,0.623,0.531,1.242,0.68,1.864c0.148,0.619,0.266,1.238,0.293,1.83
		c0.061,0.593,0.09,1.125,0.09,1.629h-11.559V398.692z"/>
</g>
<rect x="327.376" y="-47.396" fill="none" width="545.248" height="783.793"/>
</svg>
