<?xml version="1.0" encoding="utf-8"?>
<!-- Generator: Adobe Illustrator 16.0.0, SVG Export Plug-In . SVG Version: 6.00 Build 0)  -->
<!DOCTYPE svg PUBLIC "-//W3C//DTD SVG 1.1//EN" "http://www.w3.org/Graphics/SVG/1.1/DTD/svg11.dtd">
<svg version="1.1" id="Layer_1" xmlns="http://www.w3.org/2000/svg" xmlns:xlink="http://www.w3.org/1999/xlink" x="0px" y="0px"
	 width="388px" height="194px" viewBox="406 247.5 388 194" enable-background="new 406 247.5 388 194" xml:space="preserve">
<path fill="#005BA6" d="M525.938,299.401h27.907v-17.776h-27.907V299.401z M462.856,309.2c9.662,0,18.06,5.522,22.288,13.641h30.125
	c-5.413-24.086-26.832-42.091-52.451-42.091c-29.701,0-53.772,24.2-53.772,54.092c0,29.876,24.077,54.107,53.772,54.107
	c25.614,0,47.032-18,52.451-42.102h-30.125c-4.228,8.091-12.625,13.62-22.288,13.62c-13.935,0-25.229-11.474-25.229-25.626
	C437.627,320.674,448.921,309.2,462.856,309.2 M525.91,387.081h27.865V307.56h-27.832L525.91,387.081z M615.263,306.511
	c-8.553,0-15.103,3.244-19.808,8.69v-7.604h-28.049V408.25h28.049v-29.136c4.706,5.463,11.255,8.705,19.808,8.705
	c20.224,0,39.632-18.057,39.632-40.657C654.899,324.559,635.493,306.511,615.263,306.511 M611.029,363.02
	c-8.641,0-15.646-7.021-15.646-15.655c0-8.621,7.005-15.625,15.646-15.625c8.643,0,15.636,7.004,15.636,15.625
	C626.66,355.999,619.672,363.02,611.029,363.02 M762.904,307.586v7.609c-4.715-5.446-11.261-8.685-19.819-8.685
	c-20.224,0-39.624,18.048-39.624,40.645c0,22.6,19.4,40.66,39.624,40.66c8.559,0,15.109-3.245,19.819-8.707v7.973h28.05v-79.495
	H762.904z M747.317,363.025c-8.627,0-15.63-7.021-15.63-15.655c0-8.631,7.003-15.638,15.63-15.638
	c8.643,0,15.659,7.007,15.659,15.638C762.977,355.999,755.96,363.025,747.317,363.025 M665.428,387.081h28.049V281.364h-28.049
	V387.081z"/>
</svg>
