<?xml version="1.0" encoding="utf-8"?>
<!-- Generator: Adobe Illustrator 16.0.0, SVG Export Plug-In . SVG Version: 6.00 Build 0)  -->
<!DOCTYPE svg PUBLIC "-//W3C//DTD SVG 1.1//EN" "http://www.w3.org/Graphics/SVG/1.1/DTD/svg11.dtd">
<svg version="1.1" id="Layer_1" xmlns="http://www.w3.org/2000/svg" xmlns:xlink="http://www.w3.org/1999/xlink" x="0px" y="0px"
	 width="703px" height="331px" viewBox="248.5 179 703 331" enable-background="new 248.5 179 703 331" xml:space="preserve">
<g>
	<path d="M431.771,409.226v5.122c-0.938-0.519-2.555-1.196-3.665-1.471c-1.126-0.274-2.281-0.419-3.494-0.419
		c-3.145,0-5.7,1.011-7.647,3.017c-1.949,2.005-2.93,4.632-2.93,7.894c0,3.334,0.953,6.004,2.843,8.01
		c1.89,2.007,4.415,3.016,7.562,3.016c1.154,0,2.309-0.144,3.464-0.432c1.154-0.289,2.669-0.867,3.882-1.444v5.139
		c-1.27,0.476-2.612,0.821-3.983,1.053s-2.771,0.346-4.214,0.346c-4.676,0-8.428-1.428-11.271-4.271
		c-2.829-2.843-4.257-6.608-4.257-11.313c0-4.676,1.458-8.442,4.387-11.3s6.783-4.286,11.573-4.286c1.415,0,2.742,0.102,4.012,0.316
		C429.303,408.417,430.645,408.792,431.771,409.226z"/>
	<path d="M553.429,409.226v5.122c-0.938-0.519-2.555-1.196-3.667-1.471c-1.125-0.274-2.279-0.419-3.492-0.419
		c-3.146,0-5.702,1.011-7.649,3.017c-1.948,2.005-2.929,4.632-2.929,7.894c0,3.334,0.953,6.004,2.843,8.01
		c1.891,2.007,4.416,3.016,7.563,3.016c1.154,0,2.309-0.144,3.462-0.432c1.155-0.289,2.67-0.867,3.883-1.444v5.139
		c-1.27,0.476-2.613,0.821-3.984,1.053c-1.37,0.231-2.771,0.346-4.213,0.346c-4.677,0-8.429-1.428-11.271-4.271
		c-2.829-2.843-4.257-6.608-4.257-11.313c0-4.676,1.458-8.442,4.387-11.3c2.93-2.857,6.782-4.286,11.574-4.286
		c1.414,0,2.742,0.102,4.012,0.316C550.961,408.417,552.303,408.792,553.429,409.226z"/>
	<path d="M440.893,399.571h5.643v39.123h-5.643V399.571z"/>
	<path d="M502.832,420.236v18.458h-5.643v-17.173c0-3.132-0.549-5.455-1.674-6.972c-1.111-1.514-2.829-2.279-5.152-2.279
		c-2.54,0-4.546,0.952-6.004,2.871c-1.457,1.906-2.192,4.576-2.192,7.982v15.57h-5.643v-30.551h5.167v5.642
		c1.125-2.121,2.583-3.708,4.373-4.791c1.789-1.067,3.867-1.601,6.278-1.601c3.449,0,6.06,1.082,7.835,3.275
		C501.952,412.848,502.832,416.037,502.832,420.236z"/>
	<path d="M514.262,400.076h5.643v3.737h-5.643V400.076z M514.262,408.144h5.643v30.551h-5.643V408.144z"/>
	<path d="M458.715,400.076h5.642v3.737h-5.642V400.076z M458.715,408.144h5.642v30.551h-5.642V408.144z"/>
	<g>
		<path d="M763.047,280.482v15.441h-2.943v-15.441h-5.587v-2.396h14.13v2.396H763.047z M788.951,295.923v-14.878h-0.071
			l-5.846,14.878h-1.861l-5.845-14.878h-0.086v14.878h-2.944v-17.837h4.56l5.34,13.552l5.225-13.552h4.518v17.837H788.951z"/>
		<path d="M599.667,438.608l-0.1-14.634c0,0,6.061-0.606,8.486-1.63c4.674-2.021,7.288-5.586,9.828-9.844
			c3.059-5.512,4.604-9.798,4.604-12.873c0-0.519-1.155-3.953-3.436-10.361l-33.191-91.307h19.756l26.627,81.581l26.899-81.581
			h18.213l-36.064,99.937c-4.862,13.422-9.005,22.513-12.456,27.232c-6.305,8.646-10.721,12.007-23.335,13.205
			C603.204,438.579,599.667,438.608,599.667,438.608"/>
		<polygon points="408.061,393.813 408.061,249.945 426.1,249.945 426.1,335.683 465.44,295.981 489.959,295.981 444.5,339.334 
			495.717,393.813 469.827,393.813 426.1,343.548 426.1,393.813 		"/>
		<path d="M757.289,373.638v-45.835c0-26.741-18.719-32.658-38.389-32.658c-18.906,0-35.313,7.432-36.279,28.444h19.091
			c0.174-9.928,8.774-15.268,17.969-15.268c15.629,0,19.207,6.378,20.016,17.678c-0.087,4.993-3.059,8.008-10.579,8.572
			c-0.923,0.042-1.816,0.086-2.611,0.101h-3.03c-22.715,0-44.78,7.62-44.78,34.549c0,18.718,15.933,27.737,32.556,27.953
			c21.043,0.275,29.226-13.363,29.226-13.363c0.648,4.315,0.419,3.074,0.851,7.462c0.261,2.409,2.021,2.756,5.282,2.582h11.487
			C757.505,385.86,757.289,377.837,757.289,373.638 M739.885,347.285c0.229,18.025-4.547,36.296-25.92,36.296
			c-10.694,0-18.934-5.933-18.934-17.765c0-13.942,15.657-17.939,26.728-18.517c0,0,4.733-0.028,4.949-0.028
			c2.323-0.101,4.633-0.26,6.913-0.752c1.269-0.259,2.569-0.619,3.823-1.109c0.938-0.375,1.834-0.866,2.541-1.661
			C740,344.04,739.94,345.785,739.885,347.285z"/>
		<path d="M577.01,373.638v-45.835c0-26.741-18.732-32.658-38.431-32.658c-18.877,0-35.313,7.432-36.281,28.444h19.122
			c0.188-9.928,8.789-15.268,17.938-15.268c15.644,0,19.208,6.378,20.017,17.678c-0.059,4.993-3.031,8.008-10.549,8.572
			c-0.925,0.042-1.818,0.086-2.598,0.101h-3.03c-22.731,0-44.797,7.62-44.797,34.549c0,18.718,15.933,27.737,32.559,27.953
			c21.041,0.275,29.209-13.363,29.209-13.363c0.679,4.315,0.404,3.074,0.865,7.462c0.26,2.409,1.991,2.756,5.283,2.582h11.458
			C577.212,385.86,577.01,377.837,577.01,373.638 M559.62,347.285c0.188,18.025-4.59,36.296-25.962,36.296
			c-10.693,0-18.905-5.933-18.905-17.765c0-13.942,15.659-17.939,26.699-18.517c0,0,4.718-0.028,4.964-0.028
			c2.309-0.101,4.646-0.26,6.926-0.752c1.285-0.259,2.568-0.619,3.796-1.109c0.996-0.375,1.847-0.866,2.597-1.661
			c0,0.304-0.087,2.036-0.129,3.537L559.62,347.285L559.62,347.285z"/>
	</g>
</g>
</svg>
