<?xml version="1.0" encoding="utf-8"?>
<!-- Generator: Adobe Illustrator 23.0.6, SVG Export Plug-In . SVG Version: 6.00 Build 0)  -->
<svg version="1.1" id="Layer_1" xmlns="http://www.w3.org/2000/svg" xmlns:xlink="http://www.w3.org/1999/xlink" x="0px" y="0px"
	 viewBox="0 0 700 330" style="enable-background:new 0 0 700 330;" xml:space="preserve">
<style type="text/css">
	.st0{fill:#010101;}
</style>
<g>
	<path class="st0" d="M266.96,154.81c0,3.33-5.4,6.04-12.07,6.04s-12.08-2.71-12.08-6.04c0-3.33,5.42-6.04,12.08-6.04
		S266.96,151.48,266.96,154.81 M436.07,148.77c-6.67,0-12.08,2.71-12.08,6.04c0,3.33,5.41,6.04,12.08,6.04
		c6.67,0,12.08-2.71,12.08-6.04C448.15,151.48,442.73,148.77,436.07,148.77 M676.13,186.51H503.25c-19.23,0-34.72-9.68-34.72-21.14
		c0-11.45,15.5-21.13,34.72-21.13h172.88c4.99,0,9.05-3.04,9.05-6.79c0-3.75-4.06-6.79-9.05-6.79H503.25
		c-27.51,0-49.06,15.25-49.06,34.72c0,5.85,1.85,11.45,6.23,17.21l-105.45-51.11c-3.11-1.5-6.03-2.33-9.48-2.33
		c-3.45,0-6.38,0.83-9.49,2.33L227.7,183.96v-47.27c0-3.76-5.07-6.8-11.32-6.8c-4.18,0-6.79,1.18-6.79,1.18l-105.84,44.87l9.08,3.82
		c2.81,1.19,5.39,1.71,8.44,1.71c3.04,0,5.63-0.52,8.44-1.71l84.42-35.86v52.43c0,2.5,3.03,4.53,6.79,4.53h0.57
		c1.69,0,3.23-0.36,4.47-0.95l119.52-57.94l54.97,26.65H298.42l-27.11,13.13h156.23L465,199.91c1.23,0.59,2.78,0.95,4.46,0.95
		c4.05,0,7.32-2.03,7.32-4.53c0-0.31-0.04-1-0.63-1.84c7.2,3.26,16.32,5.74,27.11,5.61h172.88c4.99,0,9.05-3.03,9.05-6.79
		C685.18,189.56,681.12,186.51,676.13,186.51 M117.23,166.87l-84.29-35.8c0,0-2.61-1.18-6.79-1.18c-6.25,0-11.33,3.04-11.33,6.8
		v59.64c0,2.5,3.04,4.53,6.8,4.53c3.76,0,6.8-2.03,6.8-4.53V143.9l71.31,30.34L117.23,166.87z"/>
</g>
</svg>
