<?xml version="1.0" encoding="utf-8"?>
<!-- Generator: Adobe Illustrator 16.0.0, SVG Export Plug-In . SVG Version: 6.00 Build 0)  -->
<!DOCTYPE svg PUBLIC "-//W3C//DTD SVG 1.1//EN" "http://www.w3.org/Graphics/SVG/1.1/DTD/svg11.dtd">
<svg version="1.1" id="Layer_1" xmlns="http://www.w3.org/2000/svg" xmlns:xlink="http://www.w3.org/1999/xlink" x="0px" y="0px"
	 width="703px" height="331px" viewBox="188.5 374.5 703 331" enable-background="new 188.5 374.5 703 331" xml:space="preserve">
<g transform="translate(0.000000,1080.000000) scale(0.100000,-0.100000)">
	<path d="M5683.71,6561.181c-166.602-17.241-321.475-54.839-476.006-116.23c-127.622-50.361-303.535-143.838-428.755-227.656
		c-212.471-142.456-399.419-322.51-533.257-514.99l-30.01-43.105l13.447-12.773c12.422-12.417,20.01-31.035,130.044-325.264
		c63.813-171.777,122.803-324.57,130.376-339.414c25.884-50.361,61.753-77.266,106.938-80.703l23.462-1.719l-2.422,15.156
		c-4.824,33.467-15.864,65.537-129.004,367.344c-96.587,258.027-117.28,316.313-117.28,330.459v17.246l76.919,77.266l76.929,76.919
		l134.165,49.667c74.165,27.598,139.36,52.437,144.878,55.532c15.518,8.623,269.731,101.411,277.329,101.411
		c12.754,0,23.452-6.553,144.521-85.547c66.914-43.799,121.416-78.984,121.416-78.643c0,0.693-10.01,27.935-22.422,60.703
		c-23.799,62.783-26.904,81.411-16.895,96.592c9.316,13.794,136.592,141.411,146.572,146.587
		c22.08,11.738,296.318,112.104,306.328,112.104c12.754,0,26.904-6.553,35.869-16.553c3.438-3.794,13.789-26.216,22.412-50.01
		c8.975-23.462,17.607-43.12,18.975-43.467c1.387-0.347,13.115,12.422,25.879,27.939c69.668,86.924,184.18,185.229,274.561,236.279
		c45.869,26.216,134.521,57.949,191.094,68.638c38.281,7.246,38.643,6.904-32.08,30.352
		c-82.09,27.251-174.531,48.301-277.666,62.778C5965.185,6565.673,5746.826,6567.744,5683.71,6561.181z"/>
	<path d="M6377.021,6422.875c-60-8.628-137.275-32.773-189.004-58.638c-110.742-55.879-247.666-180.752-325.967-297.334
		c-11.387-16.558-23.135-35.186-26.23-41.738c-3.438-6.211-7.227-10.005-8.604-8.628c-1.396,1.729-12.422,29.668-24.482,61.748
		c-38.311,103.135-42.119,112.1-46.25,112.1c-2.402,0-66.221-23.105-141.758-51.392l-136.934-51.401L5415,6022.753
		c-34.131-35.527-62.764-65.537-63.457-66.914c-0.684-1.382,20.01-58.301,45.537-126.25
		c25.518-68.295,45.869-124.169,45.186-124.868c-0.703-0.684-82.1,51.738-180.762,116.245l-180.039,117.275l-102.456-37.261
		c-56.211-20.688-174.531-64.146-262.827-96.914l-160.396-59.331l-66.919-66.914l-67.261-66.577l116.582-311.47
		c64.165-171.426,119.355-322.852,123.149-337.002c8.276-32.754,8.975-78.281,1.03-89.678
		c-8.628-12.051-25.874-17.588-53.813-17.588c-47.251,0-83.818,15.508-118.647,50.02c-11.382,11.367-27.598,32.08-35.874,45.869
		c-10.352,17.598-49.673,118.662-132.808,340.791c-65.181,173.496-119.004,316.299-120.034,317.339
		c-0.684,0.688-65.532-22.427-143.833-51.392l-142.456-53.125l-63.125-65.537l-63.467-65.879l112.104-300.781
		c125.552-336.641,129.697-347.344,153.843-392.871c71.401-133.828,168.672-218.691,288.701-251.465
		c31.392-8.623,38.281-8.965,107.627-8.965c64.15,0,78.984,1.035,110.376,7.598c81.753,17.93,173.491,57.588,238.008,103.135
		c38.628,27.598,214.883,201.084,236.274,233.164c7.246,10.693,14.136,19.658,15.176,19.658s13.794-32.07,27.939-70.713
		c14.146-38.975,27.256-70.693,28.623-70.693c1.387,0,65.195,23.438,141.426,52.07l138.662,52.441l64.854,64.15
		c35.527,35.176,64.502,65.195,64.502,66.582c0,1.709-22.061,62.07-48.643,134.512c-26.904,72.793-49.668,134.873-50.693,138.652
		c-1.055,3.799,58.975-34.141,158.33-100.361c87.939-58.643,174.873-116.24,192.803-127.979l33.115-21.035l116.592,42.432
		l116.924,42.764l64.834,64.844l65.225,65.195l-6.914,18.271c-3.789,10.01-6.904,19.326-6.904,21.045c0,1.738,7.939,0,17.588-3.438
		c31.758-12.08,85.889-23.457,131.426-27.598c142.803-13.115,296.982,36.221,425.313,136.592
		c34.15,26.563,99.668,93.477,130.02,132.803c79.346,102.783,126.25,196.602,148.33,297.671c6.895,30.698,7.578,45.527,7.92,117.963
		c0,73.813-1.025,86.924-7.92,120.723c-52.441,248.359-223.516,431.86-451.875,484.976c-23.105,5.518-45.156,7.241-97.256,8.286
		C6417.744,6423.906,6382.89,6423.564,6377.021,6422.875z M6523.964,6381.474c69.336-11.377,146.24-43.799,208.34-86.909
		c42.422-29.673,109.678-98.657,139.365-143.501c67.588-101.753,101.055-203.511,106.23-321.133
		c8.271-199.365-86.592-376.669-252.48-472.216c-79.336-45.518-163.857-67.939-256.973-67.939c-81.416,0-142.119,14.131-215.596,50
		c-58.291,28.643-97.949,57.275-144.873,103.828c-213.154,213.525-236.289,556.733-52.441,771.274
		c72.793,84.507,186.279,146.602,305.957,166.948C6399.101,6388.378,6484.658,6388.037,6523.964,6381.474z M5927.226,5640.913
		c183.506-487.739,188.35-500.835,181.094-504.634c-3.789-2.08-44.502-17.246-90.352-33.799l-82.793-30.342l-344.941,228.662
		c-189.375,125.566-347.344,230.771-350.449,233.525c-3.457,2.754-6.211,3.799-6.211,1.729c0-1.729,53.477-145.908,118.994-320.43
		c65.205-174.189,118.32-316.992,117.979-317.344c-2.08-1.729-209.043-77.275-211.445-77.275
		c-2.422,0-371.147,984.091-374.595,999.96c-0.688,3.105,27.593,15.527,93.818,40.356c52.085,19.663,96.582,35.181,98.311,34.497
		c2.065-0.688,71.05-45.527,153.491-99.346c82.432-54.155,233.506-152.802,335.967-219.716
		c102.09-66.914,186.25-121.074,186.602-120.381c0.693,0.693-49.668,137.617-112.1,304.57
		c-62.422,166.948-113.145,303.54-112.441,304.238c2.393,2.407,207.646,78.979,208.682,77.949
		C5737.851,6142.436,5823.417,5916.513,5927.226,5640.913z M4925.551,5492.939c62.783-167.637,116.938-316.299,121.074-330.449
		c50.703-183.145,19.995-326.982-91.406-431.162c-104.175-97.275-293.535-162.109-423.579-145.205
		c-46.909,6.201-78.989,15.859-120.732,36.553c-85.532,42.783-151.768,115.898-205.225,226.631
		c-17.256,35.518-232.134,603.623-236.982,625.693c-1.714,8.281-9.644,4.834,129.36,56.572
		c44.497,16.553,78.301,27.246,79.673,25.518c1.733-1.719,51.396-132.793,110.732-291.123
		c59.326-158.32,113.13-298.711,119.688-312.148c33.804-67.607,81.753-112.109,140.742-130.059
		c34.487-10.684,86.914-10.684,122.441,0.361c33.115,10,73.125,31.055,94.16,48.975c24.834,21.396,49.336,58.291,60.029,90.732
		c7.92,24.121,8.96,33.447,8.96,69.316c-0.342,30.713-2.07,48.281-7.246,68.301c-4.136,14.824-56.211,157.617-115.894,317.324
		c-59.678,159.707-108.994,292.515-109.683,295.273c-0.698,3.101,30.01,16.201,102.446,43.452
		c56.909,21.733,104.502,39.326,105.547,39.326C4811.04,5797.172,4863.125,5660.225,4925.551,5492.939z"/>
	<path d="M6388.066,6167.622c-50.352-8.97-101.406-33.115-140.059-66.226c-64.141-54.497-97.256-149.014-86.904-246.284
		c17.598-161.772,119.678-298.022,246.953-329.067c35.547-8.965,92.1-7.93,129.365,1.738
		c58.633,15.166,114.512,49.658,148.311,90.708c21.055,25.874,45.195,74.165,53.828,107.969
		c9.307,35.869,8.623,117.27-1.045,156.943c-33.457,134.517-116.592,239.38-217.305,274.214
		C6476.005,6173.486,6436.357,6176.245,6388.066,6167.622z M6378.066,5992.055c63.115-20.005,118.662-72.778,157.295-149.009
		c29.99-60.371,41.729-105.903,41.729-166.606c0-37.944-1.045-45.19-8.281-61.392c-16.914-37.246-50.713-55.889-101.768-55.889
		c-96.924,0-179.014,60.024-231.445,169.717c-35.156,73.457-49.668,171.079-31.719,213.852
		c11.035,26.563,39.668,50.015,70.371,57.944C6295.966,6006.196,6347.011,6002.05,6378.066,5992.055z"/>
	<path d="M6285.273,5952.382c-37.607-11.382-47.598-41.045-35.859-108.994c17.236-99.345,72.432-186.611,137.959-217.304
		c54.854-25.869,116.934-22.773,134.531,6.548c8.955,14.492,9.326,67.949,0.322,109.346
		c-16.895,80.712-71.396,162.46-128.301,192.465C6359.453,5952.382,6311.484,5960.322,6285.273,5952.382z"/>
	<path d="M6520.166,5100.068c-71.748-22.08-94.502-25.195-181.094-25.195c-61.387,0-85.537,1.387-106.904,5.869l-27.607,5.879
		l-70.703-70.371c-38.984-38.623-73.828-72.09-77.959-73.828c-3.799-2.061-60.01-23.105-125.225-46.904
		c-81.387-30.01-122.432-43.447-132.451-43.447c-13.105,0-23.447,5.85-100.713,57.598
		c-170.742,113.828-184.561,122.441-180.752,112.1c27.939-72.441,49.336-128.32,51.406-135.908
		c6.201-20.352-0.352-29.326-78.652-107.275l-75.547-75.527l-146.924-54.854c-164.536-61.396-169.37-62.441-190.063-44.141
		c-11.382,9.658-14.492,16.201-36.909,74.492c-2.769,7.256-4.482,5.85-26.216-16.904
		c-66.221-68.643-159.697-153.828-195.923-177.979c-71.396-47.598-159.014-84.512-242.48-102.1
		c-55.879-11.738-125.562-17.588-163.501-13.457c-16.899,1.719-30.352,2.07-30.352,1.045c0-1.045,17.93-11.035,40.01-22.08
		c227.998-113.828,504.985-141.426,815.425-81.055c245.244,47.598,508.428,151.758,722.646,285.254
		c197.285,123.154,391.143,296.631,541.182,483.936c40.693,51.055,58.633,75.547,54.854,75.205
		C6554.306,5110.049,6538.105,5105.586,6520.166,5100.068z"/>
</g>
</svg>
