<svg id="Layer_1" data-name="Layer 1" xmlns="http://www.w3.org/2000/svg" viewBox="0 0 500 500"><defs><style>.cls-1,.cls-5{fill:#191818;}.cls-1,.cls-3{fill-rule:evenodd;}.cls-2,.cls-3{fill:#fff;}.cls-4{fill:#010101;}</style></defs><title>Untitled-1</title><path class="cls-1" d="M247.59,143c-.49,0-1,0-.91.7-20.27-3.56-34.14,1.73-48.67,6.12-14.22,8.4-27,18.78-36.53,33.67-14.62,27.47-11.9,65.84.34,85.62,11.35,15.63,25.73,28.95,45.37,38.26,15.09,3,28.26,4.9,42.23,4.55,21.72-5.21,40.15-15,54-31.09,16.24-18.83,22.13-63.3,13.74-91.32C304.37,164.12,288,147.26,247.59,143Z"/><ellipse class="cls-2" cx="238.31" cy="226.59" rx="73.04" ry="74.32"/><path class="cls-1" d="M266.9,166.78c-.25-.12-.5-.22-.63.16-10-6.4-18.54-6.75-27.21-7.72-9.37,1.18-18.4,3.73-26.67,9.34-13.67,11-20.47,31.61-18.2,44.65a67.89,67.89,0,0,0,15.92,30.08c7.38,5,14,8.89,21.49,11.84,12.67,2.15,24.57,1.21,35.39-4.09,12.68-6.16,28.31-26,29.87-42.5C295.52,192.46,287.48,178.06,266.9,166.78Z"/><path class="cls-3" d="M265.5,172.53c-.27-.13-.53-.24-.66.14-10.72-6.81-19.68-7.43-28.82-8.69-9.82.92-19.22,3.23-27.74,8.7-14,10.81-20.54,31.57-17.77,44.91a74,74,0,0,0,17.65,31.13c7.91,5.26,15,9.47,23,12.71,13.38,2.58,25.86,2,37.06-3.09,13.14-5.88,29-25.65,30.09-42.37C296.36,199.56,287.47,184.65,265.5,172.53Z"/><path class="cls-4" d="M313,262.73a142.49,142.49,0,0,1-25,28.61l32.92,31.24,25-28.61Z"/><path class="cls-4" d="M317.87,313.36l16.92-19.89a12.87,12.87,0,0,1,18.3-1.36L404,336.85a13.25,13.25,0,0,1,1.38,18.53l-16.92,19.89a12.87,12.87,0,0,1-18.3,1.36l-50.9-44.74A13.25,13.25,0,0,1,317.87,313.36Z"/><rect class="cls-2" x="344.05" y="297.03" width="35.14" height="74.68" rx="8.79" transform="translate(-128.13 386.46) rotate(-48.83)"/><path class="cls-2" d="M327.81,316.47c.06-.09,0-.07-.19.17l-.09.19Z"/><path class="cls-2" d="M326.61,318.05c-.14.32-.28.69-.14.51s.16-.39.29-.74.29-.43.28-.38.26-.38.34-.51a4.09,4.09,0,0,0-.75,1.15C326.57,318.18,326.61,318.08,326.61,318.05Z"/><path class="cls-2" d="M341.47,340.18l-.14-.13Z"/><path class="cls-2" d="M355,352l-.16-.12Z"/><path class="cls-2" d="M357.25,354.09l-.13-.12A.68.68,0,0,0,357.25,354.09Z"/><path class="cls-2" d="M341.47,340.18l.35.33A4.76,4.76,0,0,0,341.47,340.18Z"/><path class="cls-2" d="M325.69,321.88v0Z"/><path class="cls-2" d="M335.48,335l-.11-.09-.11-.07Z"/><path class="cls-2" d="M330.89,331a.53.53,0,0,0,.22.11,1.49,1.49,0,0,1-.24-.18S330.87,331,330.89,331Z"/><path class="cls-2" d="M325.59,323.24l0-.17Z"/><path class="cls-2" d="M338.75,337.87a.05.05,0,0,0,0,0Z"/><path class="cls-2" d="M332.52,311.23h0S332.49,311.26,332.52,311.23Z"/><path class="cls-2" d="M327.72,316.4l.06-.08s0,0,0,0Z"/><path class="cls-2" d="M361.44,357.83l0,0C361.31,357.72,361.37,357.77,361.44,357.83Z"/><path class="cls-2" d="M397.83,345.91c0,.59-.15-1-.1-.06C397.76,345.76,397.83,346.65,397.83,345.91Z"/><path class="cls-2" d="M325.69,322v0Z"/><path class="cls-2" d="M397.73,345.85h0v0Z"/><path class="cls-2" d="M371.2,366.33l-.09-.1Z"/><path class="cls-2" d="M364,359.94l.18.16Z"/><path class="cls-2" d="M375.71,368.53c.13,0,.17,0,.35.06H376Z"/><path class="cls-2" d="M380.87,367.94l-.09,0-.15.07Z"/><path class="cls-2" d="M343.8,300.62l-.24,0C343.65,300.65,342.93,300.88,343.8,300.62Z"/><path class="cls-2" d="M325.67,321.88a1.09,1.09,0,0,1,0,.15.49.49,0,0,1,0-.17S325.68,321.84,325.67,321.88Z"/><path class="cls-2" d="M376,368.24a5.29,5.29,0,0,0,.8.09A6.52,6.52,0,0,1,376,368.24Z"/><path class="cls-2" d="M373.32,321.49l-.14-.12Z"/><path class="cls-2" d="M379.15,368.15a2.36,2.36,0,0,0,.45-.08l.09,0C379.52,368.09,379.33,368.11,379.15,368.15Z"/><path class="cls-2" d="M343.56,300.64Z"/><path class="cls-2" d="M339.22,303.62c.52-.59.21-.3.3-.45.63-.68.32-.28.56-.48a8.41,8.41,0,0,1,1.1-.94s.1-.05,0,0a8.8,8.8,0,0,1,2.26-1.1l.09,0c-.12,0-.14,0-.13,0a2.76,2.76,0,0,1,.76-.18,1.72,1.72,0,0,0-.32.09l.36-.09c.33,0-.49.12-.48.16a7.82,7.82,0,0,1,2.07-.31,2.2,2.2,0,0,1-.51,0c-.24,0-.4.06,0,0-.28,0-.56,0-.84.08.65,0-.5.09.09.07s.86-.11,1.16-.11a6.23,6.23,0,0,1,1.17,0c.25,0-.08-.05.17-.06a4.26,4.26,0,0,1,1.31.32c.25.09.42.2,1,.37a3.19,3.19,0,0,1,1.12.52l-.26-.11a6.87,6.87,0,0,1,1.44,1,6.26,6.26,0,0,1-.55-.4c.54.49.42.28.85.66l.06.12,2.84,2.41c-.06,0-.24-.17,0,0,1.23,1.05,2.6,2.29,3.76,3.34l.48.36c.1.09.18.19.06.09.45.42,0,0,.27.18s.33.32.16.19c.83.68,2.36,2,3.18,2.74l-.17-.14c.65.6.81.59,1.4,1.16l-.13-.1c1.43,1.28,3,2.64,4.11,3.66.25.13,1.41,1.27,1.56,1.28.8.76.55.56,1.69,1.6.31.27.5.36.89.69l0,0,.55.42.24.28.37.31c-.14-.13-.29-.28-.26-.27.28.23.62.54.89.79a4.63,4.63,0,0,1,.45.46l1.36,1.13a3.91,3.91,0,0,1-.46-.35c.74.59.1.15.78.69-.08-.09.06,0,.09,0,.3.31,1,1,1.59,1.42l-.12-.07,3.19,2.78c-.39-.36-.26-.32.07,0l.09.15c.23.16-.32-.31.13,0s.24.29,0,.09l.52.43s-.11-.06-.15-.07c.23.15.84.79,1.17,1l0,0,2.52,2.18a5.82,5.82,0,0,1,.68.5c.65.59,1.36,1.26,2.16,1.95.58.48.19.12.46.32,0,.07.81.76.38.42l2.46,2.1c-.12-.13-.27-.26-.18-.21a2.9,2.9,0,0,1,.45.44l-.07-.05c.7.57,1.47,1.28,2.2,1.95s1.44,1.3,1.9,1.82l-.05,0a9.37,9.37,0,0,1,.89,1.16c.31.59-.22-.34,0,.1a8.44,8.44,0,0,1,1.16,3.58,13.65,13.65,0,0,1-.17,2.31,7.07,7.07,0,0,1-.86,2.42l.06-.06a2.16,2.16,0,0,1-.35.58s.22-.31.12-.12a28.2,28.2,0,0,1-2.93,3.56L390.22,358c-.75.85-.32.57-1.31,1.61l.23-.34c-1.46,1.76-3.08,3.52-4.52,5.25a3.09,3.09,0,0,1,.21-.29c-.34.33-1.14,1.33-1.14,1.33-.24.25-.08,0-.23.18a7.22,7.22,0,0,1-1,.94s.1-.08.16-.14c-.22.21-1.17.78-.91.65a8,8,0,0,1-2.06.86,5.7,5.7,0,0,1-.86.21,3.21,3.21,0,0,0-.65.11c.05,0-1.45,0-2-.08.17,0-.44-.1-.24-.09-.59-.07-1.1-.26-1-.18a8.59,8.59,0,0,1-2.5-1.26c-1.41-1.07-2.67-2.22-3.9-3.26.08,0,1.35,1.18,1.35,1.08-1.18-1-1.89-1.53-3-2.55-.29-.27.19.13.3.21-1.18-1-2.24-2-3.29-2.84l.23.18a2.84,2.84,0,0,0-.46-.38l.2.17c.3.31-.87-.64-.92-.65.4.23-1-.91-.38-.51-.14-.12-.32-.25-.3-.21-.19-.18-.25-.24,0-.08-.74-.63-.5-.38-1.16-.95a2,2,0,0,1,.23.15c-.36-.27-.71-.55-1.26-1,0,0,0,0,.15.1-1-.83-1.68-1.37-2.71-2.31.35.23-.34-.32-.36-.41l-.58-.49.21.22c-.49-.43-1-.78-1.37-1.17l.38.31-.93-.8.51.47c-.52-.42,0,.1-.64-.49.14.12-.5-.43-.73-.68h0c-.26-.2-.52-.4-.88-.73-.08-.1.12,0,.07-.05-.27-.17-1.17-1-1.51-1.23.11.08.14.06.11,0l-.23-.15c-.22-.21-.25-.24-.2-.23-.68-.6.17.25-.62-.49l.17.13-2.34-2c-.19-.23.67.57.44.31-1.09-.94-2.29-1.92-3.34-2.85l.2.18c-.2-.07-.76-.72-1.32-1.16.14.11.2.12.16.1-.71-.64-1.49-1.28-2.59-2.21l.14.1-1.56-1.4c-.15-.1-.41-.33-.27-.17-1.34-1.32-2.74-2.31-3.93-3.48.15.13.37.3.25.19l-1.08-.92a2.47,2.47,0,0,0,.33.36c-.15-.11-.46-.36-.72-.59.49.4,0-.05-.17-.24,0,0-.05,0,0,0-.52-.54-.14,0-.87-.73l.05,0c-.29-.24-.57-.45-.87-.73-.11-.14.31.25.35.25-.43-.38-.9-.69-1.27-1.06l.65.53a9.19,9.19,0,0,0-.76-.72l0,0-.72-.65.18.17c-.61-.39-1.12-.95-1.89-1.53.75.57.14.07.23.08-.18-.17-.46-.43-.37-.37-.36-.27-.55-.52-1.07-.91,0,0-.35-.33-.25-.29-.43-.4.08.12,0,.1a9,9,0,0,1-2-2.78,8.26,8.26,0,0,1-.76-2.26c0-.35.08.28.1.28-.07-.57-.12-1-.14-1.53,0,.11,0,0,0-.17a5.21,5.21,0,0,1,0-.86,3.59,3.59,0,0,1,0,.44,7.88,7.88,0,0,1,.18-1.52c.05-.13-.05.31-.05.5a13.65,13.65,0,0,1,.41-1.66l-.15.35c.08-.2.08-.09,0,.06a2.39,2.39,0,0,1-.24.72l.1-.36a6.67,6.67,0,0,0-.36,2.23l0-.32a6.79,6.79,0,0,0,0,.78c0,.16-.05.28-.06-.1a5.56,5.56,0,0,0,.05.95c0,.06,0,0,0,0a4.71,4.71,0,0,0,.09.52c0-.1,0,.1-.08-.23a10.72,10.72,0,0,0,.5,1.85l0-.08c.56,1.22.07.12.56,1,.08.21.14.44.24.64l.11.09c.07.11.22.34.18.31.32.4,0-.09.16.14.36.56,1.24,1.33,1.31,1.47s-.45-.44.09,0c.1.19.62.52,1.05.95-.17-.09-.58-.49-.16-.06a15.63,15.63,0,0,1,1.27,1.1c.05,0,.84.71,1.49,1.26-.05,0,1.19,1.08,1.77,1.61h0a13.52,13.52,0,0,1,1.21,1s-.12,0-.38-.25l.43.37c.11.07.24.18.52.41l-.13-.06c.56.49,1.16.95,1.86,1.6.07,0-.5-.58.28.07,0,0,0,.09-.19-.08.07.06.25.19.37.31l-.33-.24c.32.3.19.13.45.36,0,0,.19.19.13.18s-.22-.21-.33-.29c.3.26.64.59.75.71,0,0,0,0,.24.15.56.49.17.2.49.49.14.11.49.44.53.41a1.32,1.32,0,0,1,.23.25c.31.24,1.36,1.18,1.06.86l-.07-.07,0,0h0c1,.8,2,1.75,2.91,2.56h0c.58.48,1.26,1.09,1.68,1.41.17.15.38.37.3.32.43.37.49.4,1.1,1a2.63,2.63,0,0,1-.46-.38c.55.5.67.63,1.29,1.13-.23-.15.39.4.66.62l-.37-.36.83.72-.18-.08c1.1,1,2.13,1.72,2.93,2.56.33.24-.6-.56-.3-.36.52.47,1,1,1.18,1.15.71.65.72.53,1.47,1.2-.09-.09-.15-.21.43.27s.59.62.25.34l-.17-.16c-.18-.15-.4-.34-.21-.14l.08.05a10.7,10.7,0,0,1,.79.74c.41.34.19.13-.1-.13l1.74,1.54c-.11-.1-.2-.21-.09-.11,1,.91.48.37,1.17,1,.38.37-.18-.07.53.52.41.39.06.11-.12,0,.66.53,1.17,1.05,1.53,1.37l-.35-.28.54.46-.17-.2a3.55,3.55,0,0,1,.34.33c.22.16-.11-.18.31.15a11.34,11.34,0,0,1,.87.8c-.81-.73.06.11-.64-.49.14.11.3.25.49.43l-.09-.06c.76.72.4.28,1.21,1-.12-.07.16.2.29.31-.32-.28-.12-.17.19.08.51.47.58.49.85.73l-.3-.28c.12.07.38.3.75.61,0,.05-.34-.28-.22-.15.44.31.88.83,1.47,1.3.25.24,0,.06.21.27.66.53.66.63,1.35,1.19-.17-.2-.21-.22.28.16l-1.11-.93.74.57-.91-.77c.36.27.31.25.18.09.41.43.91.76,1.41,1.24l-.08.05c.76.72,1.43,1.18,2.43,2.09l-.32-.3c.16.1.63.55,1,.83-.05,0,.15.18.28.32a10,10,0,0,0,.9.67c.15.14.32.25.48.38a8.51,8.51,0,0,0,2.13.93c-.32-.07.13.11-.54-.12a2,2,0,0,0,.64.21c.1,0,.34.09.59.16a5.63,5.63,0,0,1,.69.12l.6,0s0,0,0,0,.62,0,.27,0a6.9,6.9,0,0,0,2-.09,12.68,12.68,0,0,0,1.87-.53,9,9,0,0,0,2.06-1.24s0,0-.1.1a10.29,10.29,0,0,0,1.2-1.19c.42-.38-.38.44-.13.19.2,0,.86-1,1.39-1.5l-.11.14c.39-.4.87-1.06,1.48-1.74,0,0,0,0,0,0,.37-.5,1.14-1.41,1.71-2.08-.15.23-.25.32-.11.22.26-.3-.12,0,.39-.56a6.67,6.67,0,0,1,.65-.62l-.48.56a12.5,12.5,0,0,0,.89-1v.06c.74-.87.71-.92,1.52-1.84l-.1.09c.4-.54.39-.4.8-.93l.18-.12,1.49-1.8c-.27.36-.86,1.08-1.22,1.53.29-.33,1-1.13,1.11-1.32a5.37,5.37,0,0,1-.37.44c.32-.43.77-1,1.34-1.64a18.37,18.37,0,0,0,1.95-2.17,9.22,9.22,0,0,0,1.53-4.65c-.12.64,0-.53-.09-.42l0-.62a7.83,7.83,0,0,0-.14-1.28c0-.3.1.39.12.35-.2-.91,0-.4-.19-1,0,.14-.11-.3-.32-.8a5,5,0,0,1,.22.72,8.36,8.36,0,0,0-1-2.21,3,3,0,0,1,.25.34,9.12,9.12,0,0,0-.95-1.28,6.77,6.77,0,0,0-1.15-1.06c-.08-.09-.18-.21,0,0-1.18-1.05-2.7-2.26-3.6-3.11l.11.06a7.38,7.38,0,0,1-.68-.56s.1.06,0,0-.62-.49-.9-.76l.26.2c-1.14-1-1.82-1.51-2.81-2.35a10.45,10.45,0,0,0-1.3-1.27h0c-1.35-1.19-2.33-2-3.61-3.05-.73-.73-2.61-2.32-3.84-3.45.19.18-.06,0-.29-.18s-.84-.67-.75-.68l.1.1a13.64,13.64,0,0,0-1.27-1.17h-.13c-1.15-1.16-3.25-2.79-3.86-3.46l-1-.81,0,0-2.25-2,.23.16c-.57-.51-.81-.54-1.34-1l-.12-.18c-1-.88-2-1.81-3-2.63,0,0,.07,0,.23.16a12.52,12.52,0,0,0-1.68-1.41,16.76,16.76,0,0,0-1.59-1.37l.11.05c-.49-.36-.51-.37-1.16-.91-.15-.14-.11-.14.08,0-.49-.46-.42-.31-1-.86l.24.17a6.86,6.86,0,0,0-.79-.63,10.43,10.43,0,0,1-1-1,5,5,0,0,1-.69-.55s.08,0,.14.09c-.85-.78-1.32-1.09-1.89-1.64,0,0,0-.06-.08-.11l1.18,1.05s-.52-.52,0-.18c-.47-.36-1.27-1-1.8-1.47l-.07-.07.06,0a4.11,4.11,0,0,0-.35-.29c-.17-.16-.27-.26-.44-.4a11.05,11.05,0,0,0-.9-.82c0,.05-.36-.27-.05.05l.25.21.12.1,0,0,.69.6a5.66,5.66,0,0,1-.77-.65l-.43-.28c-.34-.38-1.05-1-1.13-1.16a8,8,0,0,0-3-1.62,3.23,3.23,0,0,1-.46-.17l.49.13a7.35,7.35,0,0,0-2-.39c-.81-.09.46,0-.66-.09h.16a7.36,7.36,0,0,0-2.89.37,11.18,11.18,0,0,0-2.77,1.36,1.17,1.17,0,0,1,.25-.14,14.51,14.51,0,0,0-3,3c-.93,1.07-1.85,2.13-2.78,3.13a11,11,0,0,0-.84,1l-.14.09-.49.64c-.73.89-1.39,1.42-2.29,2.56l.15-.12c-.35.39-1.07,1.25-1,1.16a1.74,1.74,0,0,1-.23.29h0l-.81,1c-.67.73,0-.18-.93.9a10.42,10.42,0,0,0-.81,1.06,3,3,0,0,1,.41-.41l-.32.38c0,.11-.2.45.63-.43l.52-.66.21-.18-.47.53a5,5,0,0,0,.61-.72,1.25,1.25,0,0,0,.26-.24L330,314c.09-.06-.2.31.18-.09s-.29.24.11-.26a3.09,3.09,0,0,0,.52-.55c.06,0,0,.05-.11.19.26-.33.72-.84.83-1,.31-.29.93-1.07.95-1,.08-.11.45-.59.7-.88-.4.58,1-1.08.9-.89.29-.44,1.21-1.43,1.79-2.16l-.14.19c.34-.39.46-.49.69-.73a10,10,0,0,1,.78-1.06c.46-.44-.2.34,0,.22-.06,0,.69-.86.52-.72a4.3,4.3,0,0,1,.49-.47c0-.11.29-.35.52-.68.5-.51.18-.09.67-.69C339.66,303.09,339.22,303.62,339.22,303.62Zm15.59,1.6h0l-.29-.25Zm1.17,1-.51-.44c0-.05,0,0,.14.08A4.15,4.15,0,0,0,356,306.24Zm-2.28-2.38a1.83,1.83,0,0,1,.27.25l-.33-.28h0Z"/><path class="cls-2" d="M353.34,303.62l-.08-.07.1.1.08.05Z"/><path class="cls-2" d="M341.3,340l0,0-.05-.05Z"/><polygon class="cls-2" points="372.01 320.37 372.02 320.36 371.91 320.28 372.01 320.37"/><path class="cls-2" d="M335,334.31l-.07-.08Z"/><path class="cls-2" d="M332.22,331.88l-.39-.36Z"/><path class="cls-2" d="M330.1,330l-.05,0h0Z"/><path class="cls-2" d="M364,359.6l.08.07C364.3,359.83,364.17,359.72,364,359.6Z"/><path class="cls-2" d="M353.87,350.85l.34.27A1.58,1.58,0,0,0,353.87,350.85Z"/><polygon class="cls-2" points="375.88 368.22 375.88 368.22 375.97 368.24 375.88 368.22"/><path class="cls-2" d="M354.68,351.53l-.47-.41Z"/><path class="cls-2" d="M326.14,319.44l.05-.13a0,0,0,0,1,0,0Z"/><path class="cls-2" d="M326.19,319.29l.05-.14A.59.59,0,0,0,326.19,319.29Z"/><path class="cls-2" d="M326.34,318.86l-.1.29C326.27,319.05,326.32,318.93,326.34,318.86Z"/><path class="cls-2" d="M325.73,323.08l0,0Z"/><path class="cls-2" d="M325.92,324.19a10.06,10.06,0,0,1-.16-1v0A5.75,5.75,0,0,0,325.92,324.19Z"/><path class="cls-2" d="M328,328.38a8.67,8.67,0,0,1-.63-.73c.09.14.22.32-.06,0C328.08,328.59,327.18,327.44,328,328.38Z"/><path class="cls-2" d="M330.21,330.37c-.39-.33,0,0,0,0C330.43,330.58,330.49,330.63,330.21,330.37Z"/><path class="cls-2" d="M346.31,344.45h-.06C346.55,344.7,346.26,344.44,346.31,344.45Z"/><polygon class="cls-2" points="349.52 346.99 349.24 346.72 349.08 346.63 349.52 346.99"/><polygon class="cls-2" points="351.16 348.79 351.02 348.68 351.53 349.1 351.16 348.79"/><path class="cls-2" d="M380,368.3h-.13C379.62,368.39,379.58,368.45,380,368.3Z"/><path class="cls-2" d="M391.07,357.59a5.79,5.79,0,0,0,.58-.65Z"/><polygon class="cls-2" points="375.36 322.79 375.6 322.99 375.15 322.61 375.36 322.79"/><path class="cls-4" d="M307.34,271.7a71.17,71.17,0,0,1-12.74,14L328,316.11l12.73-14Z"/><path class="cls-5" d="M281.41,242.51l78.48-34.18L370,228.83a5.74,5.74,0,0,0,3.33,3.08,4.79,4.79,0,0,0,2.22.26,5.75,5.75,0,0,0,5.08-3.87l13-38.16a5.76,5.76,0,0,0-3.6-7.3l-38.17-13a5.8,5.8,0,0,0-7,8l10,20.3-73.1,31.62"/><path class="cls-5" d="M74.16,281.16,68.7,270.38l89.24-45.22a14.72,14.72,0,0,1,11.3-.28c2.88,1.14,6.86,3.85,9.52,10.29,2.06,5,9.92,19,12.77,24,.13.23,2.53,4.57,7,5.84,3,.87,6.66.14,10.72-2.17C227,252.73,289.71,226,292.37,224.87L297.11,236c-.65.27-64.75,27.59-81.92,37.34-7.08,4-13.89,5.09-20.23,3.21-9.23-2.75-13.57-10.71-14-11.61-.31-.53-10.56-18.41-13.34-25.16-.8-2-1.79-3.26-2.78-3.65a3,3,0,0,0-1.63-.07Z"/><path class="cls-2" d="M236.15,218.58l16.16.15-.58,59.88-16.17-.16Z"/><path class="cls-5" d="M251.63,215.05,237,214.9c-2,0-3.68,2.39-3.71,5.38l-.52,54.11c0,3,1.58,5.42,3.6,5.44L251,280c2,0,3.67-2.38,3.7-5.37l.52-54.11C255.26,217.5,253.65,215.07,251.63,215.05Zm-4.17,54.07-7.31-.07.42-43.29,7.31.07Z"/><path class="cls-2" d="M266.85,201.5l15,.15-.75,77.68-15-.14Z"/><path class="cls-5" d="M282.5,200,269,199.91c-1.87,0-3.41,2.22-3.44,5l-.68,70.2c0,2.77,1.47,5,3.34,5.05l13.54.13c1.87,0,3.4-2.21,3.43-5l.68-70.2C285.86,202.32,284.36,200.06,282.5,200Zm-4.07,70.17-6.77-.07.58-60.17L279,210Z"/><path class="cls-2" d="M208.68,194.36l16.17.15L224,278.34l-16.17-.16Z"/><path class="cls-5" d="M222.63,193.12,208,193c-2,0-3.68,2.39-3.71,5.37l-.73,75.75c0,3,1.58,5.43,3.6,5.45l14.61.14c2,0,3.67-2.39,3.7-5.38l.74-75.74C226.25,195.58,224.64,193.14,222.63,193.12Zm-4.39,75.71-7.31-.07.63-64.92,7.31.07Z"/></svg>