<svg id="Layer_1" data-name="Layer 1" xmlns="http://www.w3.org/2000/svg" viewBox="0 0 500 500"><defs><style>.cls-1{fill:#191818;}.cls-1,.cls-2{fill-rule:evenodd;}.cls-2{fill:#fff;}</style></defs><title>Untitled-1</title><path class="cls-1" d="M196.11,293.1c31.79,8.87,66.3,15,102.51,19.44,6.72,11.16,15.82,19.93,22.39,31.23,8-1,23.54,2,30.64-1.77,2.64-1.91.51-5,3-7.07,1.37-65.4-.61-134.48-5.31-197.37-8.57-3.55-25-1.3-33,2.36-8.85,4-13.77,15.15-21.2,18.85-3.59-.44-5,1.29-8.25,1.18a988.18,988.18,0,0,1-93.09,34.76c-.87-1.68-3.08-2-5.89-1.76-9.08,2.5-20,3.13-25.33,9.42-17.29,3.33-37.15,4.1-50.08,11.78.71,20.51,0,42.46,3.54,60.1,2.33,2.37,7.61,1.81,10,4.12,4.62,33.48,10.53,65.67,15.91,98.39,3.7,2.77,11.45,1.5,17.68,1.78,4.36-27.26,7.19-56.05,9.42-85.44C175.82,296.05,192.52,300.5,196.11,293.1Z"/><path class="cls-1" d="M376.39,182.34c-7.27-.55-15.51,2.91-17.67,9.43C367.41,191.43,373.25,188.23,376.39,182.34Z"/><path class="cls-1" d="M362.26,215.92c5.67,2.58,14.81.42,17.08-4.12C375.4,207.54,362.51,209.27,362.26,215.92Z"/><path class="cls-1" d="M363.43,239.49c1.1,4,14.8,4.56,16.49.59C379.22,235.64,364.9,235.74,363.43,239.49Z"/><path class="cls-1" d="M365.79,268.94c1.42,6.23,16.8,8.1,20.62,2.95C383.35,267.8,370.5,263.9,365.79,268.94Z"/><path class="cls-2" d="M343.4,144.63c.84,63,4.75,126.05,2.94,189.71-1.85.29-2.08-1.06-4.12-.59-3.31-1.54-1.75-6.36-1.76-8.84-.21-36.9-4.13-71.88-4.13-109.58,0-13.33.95-26.77-2.36-38.88-3.88,4.77-2.85,12.11-2.94,18.26-.73,47.32,2.37,94,3.53,139.63a40.28,40.28,0,0,1-8.83.59c-.27-63.83.46-124.85-3.54-187.94C330.41,147.74,337.87,144.61,343.4,144.63Z"/><path class="cls-2" d="M291,173.5h1.17c4.05,38.12-.15,76.71,1.77,114.3-.18,5.71-2,9.81-1.77,15.91C259,298,226.22,291.85,194.93,284.27c-2.08-25.43-.62-54.38-1.77-80.72,31.14-10.5,62.06-21.21,96-28.87A4.19,4.19,0,0,1,291,173.5Z"/><path class="cls-2" d="M184.91,200.6h1.18c1.1,26.23,0,62.85,2.36,87.79-1.9-.26-3.19-1.13-5.3-1.18a95,95,0,0,0-1.77-18.27c-5.26,1.94-4.39,11.37-3.53,17.68-6.43.23-4.72-7.27-4.72-11.79,0-22.59-1.09-50.36-1.76-70.1a4.82,4.82,0,0,0,3.53-1.18c.46,8.52-.15,18.67,1.77,27.1,2.26-8.15,2.48-18.33,3-28.28A7.54,7.54,0,0,0,184.91,200.6Zm-7.06,62.45c3.51.92,4.23-3.28,2.94-5.3C177,257.21,175.93,261.07,177.85,263.05Z"/><path class="cls-2" d="M165.48,214.74c-.24,22.06-1,44,1.17,64.81-13.36-3.14-27.23-5.76-39.47-10-1.83-16.27-6.47-33.88-3.54-51.25C138.82,218.71,150.09,212.14,165.48,214.74Z"/><path class="cls-2" d="M134.84,280.73c10.06,1.92,18.88,5.07,28.28,7.66.29,1.86-1.07,2.07-.59,4.12-10.11-1.29-16.84-5.94-27.11-7.06A10.94,10.94,0,0,0,134.84,280.73Z"/><path class="cls-2" d="M136.61,291.33A89.55,89.55,0,0,0,160.76,299c-3.94,21.58-6.38,44.69-8.84,67.76H149c-3-1.8-2-6.18-2.36-8.84-2.5-20.85-6.89-43.05-9.42-64.81A2.68,2.68,0,0,1,136.61,291.33Z"/><path class="cls-2" d="M314.53,150.52c.67.12.33.6,0,.6-2.3,27.5,1,56.73,0,85.42a600.53,600.53,0,0,0,3.53,86c-.59,2.73-2.5-2.3-3.53-2.95-1.32-1.62-2-3.91-3.53-5.3-1.65-4.24-4.53-7.26-6.49-11.19-2.52-45.68-1.14-91.6-4.12-136.69C303.92,160,310.13,156.13,314.53,150.52Z"/></svg>