<svg id="Layer_1" data-name="Layer 1" xmlns="http://www.w3.org/2000/svg" viewBox="0 0 500 500"><defs><style>.cls-1,.cls-3{fill:#191818;}.cls-1,.cls-2{fill-rule:evenodd;}.cls-2,.cls-4{fill:#fff;}.cls-5{fill:#010101;}</style></defs><title>Untitled-1</title><path class="cls-1" d="M306.86,42.38C267.58,44.2,226,43.77,185.54,45.89s-80.82.21-114.29,10.55c-8.58,12.88-7.87,32.25-7,50.12,2.6,56,3.87,113.63,7.92,165.28-.88,6.63,7.15,8.4,5.27,13.18-10.68,43.92-35.72,90.62-24.62,142.42,55.09,8.88,117.44,11.31,179.35,15s129,3.16,188.14-3.52c6.19-6.06,10.87-15.5,10.55-24.62-.18-5-3.93-9.39-6.16-15.82-13.48-38.83-22.85-84-37.8-117.81,1-5.76,2.6-10.88,2.64-17.58-3.94-71.09,2.18-152.23-9.67-215.4C360.63,39.2,330.67,41.28,306.86,42.38Z"/><path class="cls-2" d="M372.8,55.56c4.63,30.62,2.63,64,2.63,96.71,0,40.53,4.7,80.78,2.64,118.69-8.6,4.3-22.29,3.5-33.41,5.27-4.89.2-2.44-6.94-7-7-16.48-.79-41.77-3.22-48.35,8.79-18.63-.63-38.84.88-58.9.88-19.57,0-40.82,1.49-57.14-1.76-5-1-6.67-4.47-11.44-5.27-9.78-.47-21.53,1-29.88-.88-9.4,6.72-32.28,7.47-45.72,2.64-7.9-30.5-7.22-68.25-8.79-105.51-.76-17.81-1.54-36.4-2.64-54.5C73.7,96,71,77,78.27,62.6c17.75-7.44,41.48-4.28,64.19-5.27,22.34-1,46.21-1.57,67.69-1.77-3.16,4.23.15,10.6,0,13.19-37.77,5.62-86.5.24-116.92,13.19C90.59,85.17,91.79,92.23,89.71,96c2.21,55.77.44,119.34,8.78,166.15,79.21,1.63,178.91,5.22,251.44-4.39,3.24-3.8,8.43-5.64,11.43-9.67,1.67-54.8,6.38-127.44-7-174.95-.49-3.61-6.53-1.67-7-5.27-36.87-4.39-79.78-.25-117.81,0,2-4.23,1.62-7.86,0-12.32C276.52,57.06,329.87,45,372.8,55.56Zm-12.31,5.27c.18,3.68,3.75,4,5.27,8.8,3,9.31-1.28,24,2.64,32.53C373.85,93,375,58.3,360.49,60.83ZM87.07,62.6c-3,1.95-5.06,4.9-7,7.91-4.33,33.78.42,71.71,5.27,102,1.87-32-3.78-63.42-1.76-98.46-.12-4.45,10.21-7.07,5.28-10.56C88.63,62.79,88.09,62.46,87.07,62.6ZM95,263.92c-7.21-13.87-6.57-35.61-8.78-54.5-.2-.68-.74-1-1.76-.88C85,226.56,81.56,255.9,95,263.92Z"/><path class="cls-2" d="M223.33,59.08c.67,4.48-.64,7-4.38,7-2.59,0-3.27-2-4.4-3.51C213.69,56.8,220.49,56.33,223.33,59.08Z"/><path class="cls-2" d="M344.66,77.54c6.61,15.84,5.84,36.53,6.16,57.15.3,20,1.34,40.51,2.63,59.78,1.18,17.59,1.7,36.59-3.52,50.11-13.8,11.09-36.44,7.92-57.14,7.92H228.61c-42.73,0-85.83,5.2-122.2,2.63a1561.08,1561.08,0,0,1-7-165.28c8.28-9.17,22.46-7.48,36-7.91,40.54-1.27,85.36-4.51,124.84-6.15,1.42.24,1.51-.84,2.64-.88C290.27,75.67,319.79,74.27,344.66,77.54Z"/><path class="cls-2" d="M328.84,280.63c-2.14,5.73-22.08,4.89-25.5.87C305.85,275.44,326.92,273.92,328.84,280.63Z"/><path class="cls-2" d="M160.91,280.63c-3.77,7.18-26.84,6.07-29.89-.88C137.83,277.33,155.47,276.18,160.91,280.63Z"/><path class="cls-2" d="M418.51,409c-86.26-.78-180.65.22-269-5.27-31.3-1.94-62.43,1.76-91.44-3.52,8.35-38.83,17.49-76.88,29-112.53,8.39-3.28,23.22.3,34.29,0,4.18-.08,2.9,5.3,7,5.27,17.26-1.5,33.15,3.3,43.08-4.39,37.67,3.49,79.46.28,118.69,0,5.34-.65,4.4,5,9.67,4.39,11.51-2.19,21,.47,30.77-.87,5.3-.73,8.73-5,14.07-6.15,8.13-1.74,15.61,1.61,24.61-.89,1.51.19,2.28-1.5,2.64,0,3.83,0,4.82,2.81,7.92,3.52C389.06,331.77,406.72,371.24,418.51,409Zm-327-102.86c-5.11,14.37-9.85,38.05-7,54.52,27.76,4.43,66.85,2.62,94.95,3.5-.7,11.17-4.47,23.46-2.64,34.3,20.8,4.72,54.86,1.45,81.77,2.64,8.34.36,15.68,1.85,22-1.76-1.6-10.42-2.94-25.78-2.64-35.18,34.47,4.26,75.49,4.71,108.14-1.75a294.81,294.81,0,0,0-13.18-58C280.33,301.22,183.14,303.28,91.47,306.12Z"/><path class="cls-2" d="M368.4,309.64a36.89,36.89,0,0,0,.87,10.55H357a27,27,0,0,1-1.76-9.67C360.3,310.91,364.22,310.15,368.4,309.64Z"/><path class="cls-2" d="M297.19,310.52c-.17,3.4,0,6.48.87,8.8H279.6C273.92,308.22,288.83,310.47,297.19,310.52Z"/><path class="cls-2" d="M303.34,310.52H320c-.61,3.83,1.5,5,.88,8.8-4.93,2.56-10.76-.75-16.7,0C302.66,317.65,303.58,313.51,303.34,310.52Z"/><path class="cls-2" d="M326.2,310.52h22.86c-.68,4.19,1.37,5.65.87,9.67H328A20.52,20.52,0,0,1,326.2,310.52Z"/><path class="cls-2" d="M245.32,311.4c-.18,2.75.58,6.45-.89,7.92H228.61c.63-3.27-1.5-3.78-.88-7C232,310.38,239.64,311.87,245.32,311.4Z"/><path class="cls-2" d="M250.59,311.4h22c-.76,3.5,1.31,6.5,0,7.92h-21.1A19.06,19.06,0,0,1,250.59,311.4Z"/><path class="cls-2" d="M95.86,312.28c5.4.46,12.72-1,16.7.88.66,4.16-1,6-.87,9.67-6.4,1.42-10.49-.11-17.59,0C94.57,319.2,95.39,315.91,95.86,312.28Z"/><path class="cls-2" d="M137.18,312.28c-.32,3.48.8,8.42-.89,10.55-6.27-.52-14.78.78-18.45,0C113.92,308.94,127.45,312.52,137.18,312.28Z"/><path class="cls-2" d="M144.21,312.28h14.06c-.91,2.88-.41,7.2-1.76,9.67h-12.3C142.59,319.89,145.14,316.36,144.21,312.28Z"/><path class="cls-2" d="M164.43,312.28h14.95c-.58,3.23-1.71,5.91-1.76,9.67H163.55C163.84,318.72,162.81,314.16,164.43,312.28Z"/><path class="cls-2" d="M183.77,312.28h18.46c.44,3.94-.44,6.59-.87,9.67H183.77C185,318.15,184.18,316.37,183.77,312.28Z"/><path class="cls-2" d="M209.27,312.28h14.06c-1.35,1.28-.77,4.5-.87,7-3.77,1.5-10.17.37-14.07,1.74C207.77,317.24,209.88,316.11,209.27,312.28Z"/><path class="cls-2" d="M273.45,324.59c.55,4.42,1,8.94,1.75,13.18-7.21,2.66-15.38-.91-23.73,0C246.59,321.18,261.68,324.54,273.45,324.59Z"/><path class="cls-2" d="M279.6,324.59h18.46c1.16,3.82.95,9,1.76,13.18-4.53,1.92-12.5.4-18.46.89C280.69,334.05,279.91,329.55,279.6,324.59Z"/><path class="cls-2" d="M305.09,324.59h15.83a31.79,31.79,0,0,1,2.64,13.18H306C305.7,333.65,304.13,327.13,305.09,324.59Z"/><path class="cls-2" d="M328.84,324.59c7.15.45,13.94,1.29,22,.88a74.8,74.8,0,0,1,1.75,12.3h-22C329.89,333.81,327.77,327.49,328.84,324.59Z"/><path class="cls-2" d="M357.85,324.59h12.31c1.8,3.76,1.24,9.89,3.51,13.18-3.6,2.69-8.63-.71-13.18,0C359,334,358.75,329,357.85,324.59Z"/><path class="cls-2" d="M245.32,337.77H229.49c.69-4.49-1.24-6.38-.88-10.54C238.12,325.3,249.63,323.23,245.32,337.77Z"/><path class="cls-2" d="M209.27,327.23h13.19c-.6,4.4.81,6.8.87,10.54-3.43,1.85-10.11.44-14.94.89C207.5,336.69,208.26,330.09,209.27,327.23Z"/><path class="cls-2" d="M201.36,328.1c-.07,3.75-1.47,6.16-.88,10.56H182.9c-.68-4.2,1.37-5.67.87-9.68C189.93,329,194.6,327.5,201.36,328.1Z"/><path class="cls-2" d="M135.42,329c1.38,2,1.38,8.54,0,10.55H117c-.68-4.19,1.38-5.66.88-9.66C123.68,329.56,128.78,328.5,135.42,329Z"/><path class="cls-2" d="M155.64,329c1.1,1.53-.67,5.83,0,9.68-3.92.2-9.7,2.14-13.18,0-.62-3.85,1.49-5,.88-8.79C148.42,330.55,150.85,328.59,155.64,329Z"/><path class="cls-2" d="M162.68,329h14.06c.44,3.95-.45,6.6-.87,9.68H161.79C161.12,334.46,163.17,333,162.68,329Z"/><path class="cls-2" d="M111.69,329.87c.42,3.94-.45,6.58-.88,9.66-5.15-1-11.32-1-17.58-.87C88.78,328.51,102.39,329.16,111.69,329.87Z"/><path class="cls-2" d="M229.49,343.05h15.83c1.73.61-.22,4.91,1.75,5.27-3.82,2-11.41.31-16.7.88C229.16,348.07,229.5,345.38,229.49,343.05Z"/><path class="cls-2" d="M252.35,343.05c7.06,1.13,15.5.91,23.74.87-.12,5.41,1.89,8.66,2.64,13.19-4.68,0-3.9-5.48-7.92-6.15-5.69,1.44-11.7-1.63-18.46-1.76Z"/><path class="cls-2" d="M207.51,343.92h15.82c2,9-10.08,4-15.82,5.28Z"/><path class="cls-2" d="M282.24,343.92h17.58a46.19,46.19,0,0,1,1.76,13.19H282.24Z"/><path class="cls-2" d="M306.86,343.92c7.12-.68,11.63,1.28,18.45.89.48,4.8,2.05,8.5,2.65,13.18a121.48,121.48,0,0,1-20.23-.88C308,352.15,306.18,349.3,306.86,343.92Z"/><path class="cls-2" d="M110.81,344.81c.64,4.16-1,6-.89,9.67H90.58C87.84,341.77,101,345,110.81,344.81Z"/><path class="cls-2" d="M117,344.81c6.12.33,13.7-.81,18.46.88v8.79c-6.07.33-12.78,1.84-18.46,0Z"/><path class="cls-2" d="M182.9,344.81h17.58c.47,9.84-15.36,3.4-18.46,9.67C181.1,353.49,182,346.88,182.9,344.81Z"/><path class="cls-2" d="M141.57,345.69h13.2c.68,3.9-1.18,5.27-.89,8.79H141.57Z"/><path class="cls-2" d="M160.91,345.69H175v7.91c-5.81-.54-9,1.53-15,.88C159.35,350.57,161.21,349.2,160.91,345.69Z"/><path class="cls-2" d="M332.35,345.69c8-.42,14.82.42,22,.88-.65,4.16,1,6,.88,9.67-7,.63-14.24,1-21.1,1.75C334,353.43,332.48,350.26,332.35,345.69Z"/><path class="cls-2" d="M362.24,345.69c4.61.07,7.92,1.46,13.19.88,1,2.77,1,6.63,2.64,8.79-3.44,1.94-9.38-1.16-14.95,0C363.52,351.57,360.73,347.84,362.24,345.69Z"/><path class="cls-2" d="M253.23,358c.76,10.19-3.51,23.57.87,31.66-20.55,4.16-46.7,5.07-70.33,3.51a268.81,268.81,0,0,0,1.77-32.52C207.58,358.93,228.85,356.89,253.23,358Z"/><path class="cls-2" d="M271.69,390.52c-2.93,2.3-7.51-1.25-12.31,0,2.32-9.74.16-22.36-.87-31.65,2.38-.54,7,1.12,7.91-.88C270.55,366.45,268.3,381.31,271.69,390.52Z"/><path class="cls-2" d="M58.94,411.63c56.89,2.09,120.36,4.37,179.34,5.26,53.22.82,103.91,3.53,157.36,3.53,6.1,0,14.7-2.32,19.35,3.52-2.29,6.7-12.38,5.76-17.58,6.14-114.34,8.37-228.4-9.58-337.59-9.66,0-2.34.33-5-.88-6.16C59.12,412.75,57.44,412,58.94,411.63Z"/><path class="cls-3" d="M255.7,202.57l47.87-21.4,6.29,12.5a3.53,3.53,0,0,0,2.06,1.86,2.91,2.91,0,0,0,1.37.15,3.52,3.52,0,0,0,3.09-2.4l7.7-23.46a3.53,3.53,0,0,0-2.25-4.45l-23.46-7.71a3.55,3.55,0,0,0-4.26,5L300.37,175l-44.6,19.81"/><path class="cls-3" d="M129,227.49l-3.41-6.58L180,192.68a9,9,0,0,1,6.92-.24c1.77.68,4.23,2.32,5.89,6.25,1.3,3.05,6.19,11.58,8,14.61a7.93,7.93,0,0,0,4.3,3.53c1.87.52,4.08,0,6.56-1.39,10.83-6.28,49.1-23,50.72-23.74l3,6.79c-.4.17-39.51,17.29-50,23.36-4.31,2.5-8.48,3.2-12.37,2.08a15.1,15.1,0,0,1-8.67-7c-.2-.32-6.58-11.22-8.33-15.34a4,4,0,0,0-1.72-2.22,1.91,1.91,0,0,0-1,0Z"/><path class="cls-4" d="M227.82,188.18h9.91v36.69h-9.91Z"/><path class="cls-3" d="M237.29,185.93h-8.95c-1.24,0-2.24,1.48-2.24,3.31v33.15c0,1.83,1,3.32,2.24,3.32h8.95c1.24,0,2.24-1.49,2.24-3.32V189.24C239.53,187.41,238.53,185.93,237.29,185.93Zm-2.24,33.15h-4.47V192.56h4.47Z"/><path class="cls-4" d="M246.53,177.54h9.18v47.6h-9.18Z"/><path class="cls-3" d="M256.11,176.55h-8.3c-1.14,0-2.07,1.38-2.07,3.07v43c0,1.69.93,3.07,2.07,3.07h8.3c1.14,0,2.07-1.38,2.07-3.07v-43C258.18,177.93,257.25,176.55,256.11,176.55Zm-2.07,43h-4.15V182.7H254Z"/><path class="cls-4" d="M210.85,173.51h9.91v51.36h-9.91Z"/><path class="cls-3" d="M219.39,172.67h-8.95c-1.24,0-2.24,1.48-2.24,3.31v46.41c0,1.83,1,3.32,2.24,3.32h8.95c1.23,0,2.24-1.49,2.24-3.32V176C221.63,174.15,220.62,172.67,219.39,172.67Zm-2.24,46.41h-4.47V179.3h4.47Z"/><polygon class="cls-4" points="208.76 118.58 240.14 118.58 240.14 106.03 258.97 87.2 265.25 74.65 265.25 55.82 252.69 43.26 246.42 30.71 227.59 30.71 215.03 30.71 196.2 36.99 189.93 43.26 183.65 55.82 183.65 74.65 189.93 87.2 202.48 99.75 208.76 112.31 208.76 118.58 208.76 118.58"/><path class="cls-5" d="M215.26,25.38A42.61,42.61,0,0,0,190.07,92.3,69.83,69.83,0,0,0,196,99c4.22,4.35,9,9.28,9,13.38v5.29h-3.87a3.88,3.88,0,0,0,0,7.75H205v11.88a19.37,19.37,0,0,0,38.74,0V125.39h3.87a3.88,3.88,0,0,0,0-7.75h-3.87V113c0-4.38,4.88-9.57,9.19-14.15a74,74,0,0,0,6-6.94,42.63,42.63,0,0,0-43.7-66.55ZM236,133.4H212.76v-8H236Zm-11.62,15.49a11.65,11.65,0,0,1-11-7.75h21.92A11.65,11.65,0,0,1,224.38,148.89Zm28.3-61.49a70.17,70.17,0,0,1-5.38,6.16C242,99.19,236,105.57,236,113v4.62H212.76v-5.29c0-7.23-5.94-13.36-11.17-18.77a63.36,63.36,0,0,1-5.29-5.88,34.86,34.86,0,1,1,56.38-.3Z"/><path class="cls-5" d="M286.61,63.16h-7.75a3.88,3.88,0,0,0,0,7.75h7.75a3.88,3.88,0,0,0,0-7.75Z"/><path class="cls-5" d="M162.15,70.91h7.74a3.88,3.88,0,1,0,0-7.75h-7.74a3.88,3.88,0,1,0,0,7.75Z"/><path class="cls-5" d="M160.37,103.8a3.87,3.87,0,0,0,5.28,1.46l13.68-7.74a3.87,3.87,0,1,0-3.82-6.74l-13.68,7.74A3.88,3.88,0,0,0,160.37,103.8Z"/><path class="cls-5" d="M288.39,30.27a3.87,3.87,0,0,0-5.28-1.47l-13.68,7.75a3.87,3.87,0,1,0,3.82,6.74l13.68-7.75A3.87,3.87,0,0,0,288.39,30.27Z"/><path class="cls-5" d="M180.79,41.83a3.88,3.88,0,0,0-1.46-5.28L165.65,28.8a3.87,3.87,0,0,0-3.82,6.74l13.68,7.75A3.88,3.88,0,0,0,180.79,41.83Z"/><path class="cls-5" d="M288.39,103.8a3.88,3.88,0,0,0-1.46-5.28l-13.68-7.74a3.87,3.87,0,1,0-3.82,6.74l13.68,7.74A3.86,3.86,0,0,0,288.39,103.8Z"/></svg>