<svg id="Layer_1" data-name="Layer 1" xmlns="http://www.w3.org/2000/svg" viewBox="0 0 500 500"><defs><style>.cls-1{fill:#191818;}.cls-1,.cls-2{fill-rule:evenodd;}.cls-2{fill:#fff;}</style></defs><title>Untitled-1</title><path class="cls-1" d="M228,57.66c-5.81-1.32-12-1.22-18.26-1.37a598.2,598.2,0,0,0-60.56,1.22c-12.27,1-25.37,3-38.29,3.66-13.15.7-26.72,1.24-37.56,2-.59,51.48-1.28,106.63,2.93,159.11,12.33-1.24,26.58-1.14,40.72-2.15,40.35-2.85,87.68.17,122.44-10-3.07-37-4.67-77.35-7-115.81A267.84,267.84,0,0,0,228,57.66Z"/><path class="cls-2" d="M82.67,73.87c44-1.21,90.75-2.31,133.08-6.22,3.72,43.42,5.81,86.46,7.61,131.61-43.35,5.88-92.59,4.6-136.89,9.92C83.17,164.86,83.91,118.78,82.67,73.87Z"/><path class="cls-1" d="M227.73,89.17C208.59,87,193.66,97,184.28,108.67c-.92,3.84-3.48,9.19-2.23,13.52l-.15,1.18c.26,11.63,1.88,22.34,7.74,30.31,7.86,10.7,28.8,17,44.21,15,2.7-.36,2.65-1,2.65-1l-4.39-77.87s-3-.53-4.38-.69"/><path class="cls-2" d="M200.55,128.58c-1-3.26.1-8.92.72-12.22,3.75-4.46,8.45-7.86,13.41-11,19.56-6.34,40.56,3.09,40.64,21.29,0,4.95-2.62,8.31-2.88,14.14C241.79,160.94,198.12,158.94,200.55,128.58Z"/><path class="cls-1" d="M110.88,212.29c-2,18.06,7.38,32.15,18.41,41,3.62.87,8.67,3.28,12.76,2.11l1.12.13c11-.24,21.09-1.77,28.61-7.3,10.1-7.43,16.08-27.19,14.17-41.74-.33-2.55-.91-2.5-.91-2.5l-73.51,4.15s-.5,2.78-.65,4.14"/><path class="cls-2" d="M145.08,189.29c3.07-.9,8.42.09,11.53.67A52.1,52.1,0,0,1,167,202.62c6,18.47-2.91,38.29-20.09,38.37-4.67,0-7.85-2.48-13.34-2.72C114.53,228.22,116.42,187,145.08,189.29Z"/><path class="cls-1" d="M428.06,249.11c1.43-5.44,1.54-11.31,1.87-17.19a564,564,0,0,0,.75-57.17c-.53-11.61-2-24-2.24-36.24-.25-12.43-.33-25.25-.75-35.5-48.55-2.17-100.56-4.56-150.21-2.24.79,11.68.25,25.12.75,38.49,1.43,38.15-2.91,82.71,5.61,115.83,35-1.74,73.12-2,109.48-3A253,253,0,0,0,428.06,249.11Z"/><path class="cls-2" d="M417.34,111.47c-.24,41.55-.67,85.69,1.69,125.75-41.08,2.15-81.76,2.77-124.41,3-4.18-41.08-1.43-87.5-5.06-129.46C331.49,109.08,374.93,111.23,417.34,111.47Z"/><path class="cls-1" d="M398.35,247.84c2.63-18-6.31-32.38-17-41.6-3.59-1-8.55-3.57-12.69-2.53l-1.1-.17c-11-.13-21.14,1.06-28.84,6.34-10.35,7.08-17,26.64-15.56,41.24.25,2.56.83,2.53.83,2.53l73.6-1.69s.6-2.77.8-4.12"/><path class="cls-2" d="M362,221c3.1-.79,8.41.38,11.51,1.07a51.74,51.74,0,0,1,9.91,13c5.37,18.66-4.19,38.17-21.36,37.68-4.67-.14-7.76-2.74-13.25-3.16C330.19,258.85,333.45,217.71,362,221Z"/><path class="cls-1" d="M371.21,217.16c-2.87-.33-7-1.72-10-.44h-.87c-8.42,1.21-16.06,3.33-21.34,8.28-8.33,7.82-12.35,22.93-6.1,35.28,2.32,4.57,8.46,10.62,13.94,13.06s12.85,1.9,20.9,2.18c11.57-3.89,20.22-11.48,21.34-25.26C390.35,234.44,381.22,223.39,371.21,217.16Z"/><path class="cls-1" d="M433.28,399.35c1.42-5.43,1.53-11.31,1.87-17.18a564.08,564.08,0,0,0,.74-57.17c-.52-11.61-2-24-2.24-36.24-.24-12.43-.33-25.25-.75-35.5-48.54-2.18-100.56-4.56-150.2-2.24.78,11.67.25,25.12.75,38.49,1.42,38.15-2.92,82.71,5.6,115.83,35.05-1.74,73.13-2,109.48-3A253.13,253.13,0,0,0,433.28,399.35Z"/><path class="cls-2" d="M422.56,261.71c-.25,41.56-.67,85.7,1.68,125.76-41.08,2.14-81.75,2.76-124.4,3-4.19-41.08-1.44-87.5-5.06-129.46C336.7,259.32,380.14,261.47,422.56,261.71Z"/><path class="cls-2" d="M358.48,226.11c2.33-.84,6.52-.31,8.95,0a40.1,40.1,0,0,1,8.58,9.32c5.48,14-.51,29.76-13.8,30.6-3.62.23-6.19-1.56-10.45-1.49C336.62,257.62,336.2,225.63,358.48,226.11Z"/><path class="cls-1" d="M283.91,258.1c-5.46-1.35-11.33-1.38-17.21-1.64a562.13,562.13,0,0,0-57.18,0c-11.6.68-24,2.31-36.21,2.71-12.42.4-25.24.65-35.48,1.2-1.55,48.57-3.27,100.61-.3,150.23,11.66-.94,25.11-.58,38.47-1.25,38.13-1.92,82.74,1.85,115.75-7.1-2.19-35-2.92-73.09-4.41-109.43A252.88,252.88,0,0,0,283.91,258.1Z"/><path class="cls-2" d="M146.41,270.6c41.56-.29,85.7-.43,125.73-3.31,2.67,41,3.81,81.72,4.64,124.36-41,4.72-87.48,2.56-129.39,6.73C145.13,356.48,146.72,313,146.41,270.6Z"/><path class="cls-1" d="M278.91,359.17c18,2.4,32.3-6.73,41.38-17.57.94-3.6,3.46-8.6,2.37-12.72l.15-1.11c0-11-1.34-21.12-6.71-28.76-7.22-10.25-26.86-16.63-41.43-15-2.56.28-2.53.86-2.53.86l2.64,73.58s2.78.56,4.13.74"/><path class="cls-2" d="M256.61,324.51c-.83-3.1.27-8.42.92-11.52a51.64,51.64,0,0,1,12.87-10.08c18.58-5.62,38.22,3.69,37.94,20.87-.08,4.67-2.64,7.8-3,13.29C294.91,355.84,253.73,353.11,256.61,324.51Z"/><path class="cls-1" d="M286.64,137.68c-18-2.41-32.3,6.72-41.38,17.57-.95,3.6-3.47,8.6-2.37,12.71l-.16,1.11c0,11,1.34,21.13,6.71,28.76,7.22,10.25,26.86,16.64,41.44,15,2.56-.28,2.53-.86,2.53-.86l-2.65-73.57s-2.77-.56-4.12-.74"/><path class="cls-2" d="M308.93,172.34c.84,3.09-.26,8.42-.91,11.52a52.24,52.24,0,0,1-12.87,10.08c-18.58,5.61-38.22-3.7-37.95-20.88.08-4.67,2.64-7.79,3-13.28C270.64,141,311.81,143.73,308.93,172.34Z"/><path class="cls-2" d="M261.8,328c-.86-2.32-.39-6.51-.11-9a40.1,40.1,0,0,1,9.21-8.7c13.94-5.66,29.76.12,30.78,13.41.27,3.61-1.49,6.2-1.36,10.46C293.59,349.44,261.62,350.26,261.8,328Z"/><path class="cls-1" d="M174,262.72c-2.64,18,6.3,32.38,17,41.6,3.59,1,8.56,3.58,12.69,2.53l1.11.17c11,.13,21.13-1.06,28.84-6.33,10.34-7.09,17-26.65,15.56-41.25-.25-2.56-.83-2.53-.83-2.53l-73.61,1.69s-.59,2.77-.79,4.12"/><path class="cls-2" d="M213.86,284.45c-2.34.84-6.52.32-9,0a40.32,40.32,0,0,1-8.58-9.32c-5.47-14,.51-29.76,13.81-30.6,3.61-.22,6.18,1.56,10.44,1.5C235.72,252.94,236.14,284.93,213.86,284.45Z"/></svg>