<svg id="Layer_1" data-name="Layer 1" xmlns="http://www.w3.org/2000/svg" viewBox="0 0 500 500"><defs><style>.cls-1{fill:#fff;}.cls-1,.cls-2{fill-rule:evenodd;}.cls-2{fill:#191818;}</style></defs><title>Untitled-1</title><path class="cls-1" d="M407.9,171.1c.14-.16.16.35.17.89.59-.39,1,.35,1.38.89,10.46-.81,21.72-.89,31.85-.89,1.14,0,2.69-2.22,3.46,2.67.54,3.23-1,1.23-1.56,1.79-11.31-.61-24.38-.27-35.13,1.76C408.2,174.87,407.86,174,407.9,171.1Z"/><path class="cls-1" d="M444.42,223.58c-10.31,6.47-22.9-1.4-34.1,2.67-.25.82-1.83,2.82-1.56-1.78-.42-4.7,1.73-2.48,2.42-2.66C421.52,219,433.84,225.49,444.42,223.58Z"/><path class="cls-1" d="M444.93,272.5c-5.81,2.81-12.22.88-18.51,1.78s-12.67,3-18.18,1.78c-.32-6.08,1.21-2.69,1.91-3.56C421.15,270.42,434.12,271.49,444.93,272.5Z"/><path class="cls-1" d="M391.75,347.22c12.92-.16,29.23,4,43.59,5.34,2.4,16.29,8,29.34,9.78,46.26C425.84,383.1,409.13,364.85,391.75,347.22Z"/><path class="cls-2" d="M341.76,219.14a6.57,6.57,0,0,1-4.18-3c-10-1.89-24.34-1.51-35.22-2.44-2.9-.25-9.84.81-8.95-4.27,5.55-3.48,19.07,1.18,23.87-3.06,5-10.44,4.6-26,5.38-40.91.79-15.2,2-31.65-1.2-44.57-14.16-4-31.17-2.45-48.34-2.45-26.88,0-53.2-4-77,.62-3.09,12.39-1.28,28.51-.58,43.35s1,30.45,7.15,39.69c4.15,2.47,10.54,2.65,16.71,3,2.15,1.27,6.46.32,9.55.61,2.86.54,8.56-1.84,7.17,3-2,3.23-6.83,1.39-9.55,1.23-3.84-.24-8.1-.46-11.94-.61-39.59-1.58-77.23-4.86-115.78-6.73-15.5-.74-32.2-1.61-42.38,6.73-6,48.11-.35,106.84.6,153.87,2.45,10.51,2.9,23.08,10.74,28.08,28.07.69,59,3.92,89.53,2.45,13.32-.65,26.77-.07,40-.62,12.75-.51,25.12-2.34,37.6-3,36.41-2.07,72.35,3.24,105-3.67,6.88-9.41,5.39-23.89,6-37.86,1.2-28.88,1.63-59.56,0-87.93C345.07,245.72,346.48,231.08,341.76,219.14Z"/><path class="cls-1" d="M315.5,129.39c-2.25,22.12-2.43,46.36-4.19,69-33.84,3-68.95-1.95-103.24-2.44-4.17-20.57-5.94-46.83-5.38-70.21.59-2.67,5.84-.55,8.36-1.23C244.91,124.67,282.14,126.67,315.5,129.39Zm-106.84-.61c-2.53,18.52-.78,43.09,1.19,61.06,13.88,1.25,30.81,2.77,47.16,3.66,16.64.91,33.82,3.26,48.34,0,5-16.23,2.7-43.22,4.17-61.06-31.48-3.21-64.95-4.37-99.07-4.88A4.21,4.21,0,0,0,208.66,128.78Z"/><path class="cls-1" d="M304.75,139.15c-1.9,15.77-3.34,32-4.18,48.85-28.4-.65-55.18-3-84.74-2.44-2.75-15.51-3.38-36.44-3.59-52.51C243.65,134.5,276.42,134.56,304.75,139.15ZM219.4,180.68c24.37-.19,54.63,5.07,79.38,2.44-.69-11.47.85-27.76,0-39.08-24.56-4.38-51.39-6.45-80-6.72C212.58,148,217.25,168.94,219.4,180.68Z"/><path class="cls-1" d="M221.19,142.21c3.83-.45,6.07.71,9.56.61V174c-2.63.16-4.62,1-7.76.61C222.34,163.83,222,152.82,221.19,142.21Z"/><path class="cls-1" d="M234.32,143.43a12.7,12.7,0,0,1,5.38.61c-1.7,9.66.53,23.35-2.39,31.75-3.42-1.85-1.63-7.31-1.79-11-.27-6.21-1-13.44-.6-19.54A3,3,0,0,1,234.32,143.43Z"/><path class="cls-1" d="M242.68,144a10.86,10.86,0,0,0,4.77.61c-.43,11.23,1,20.58.6,31.75h-4.77C241.58,166,243.68,154.18,242.68,144Z"/><path class="cls-1" d="M251,145.26c3.13-.35,4.51,1.08,7.75.61-1.41,9.28.81,19.87,0,30.53h-6.56C251.85,166,251.69,155.38,251,145.26Z"/><path class="cls-1" d="M261.78,146.48c4.5-.32,7.3,1.08,11.93.61V177a34.75,34.75,0,0,1-11.33-.62C262.87,167.57,262.24,156.21,261.78,146.48Z"/><path class="cls-1" d="M277.3,147.7c2.45-.47,3.06,1,5.37.62-1.11,9.24.13,20.89-1.2,29.91-.76-.83-2.59-.6-4.17-.61C277.94,168.64,278.52,156.58,277.3,147.7Z"/><path class="cls-1" d="M293.41,148.92c.46,10.65-.79,19.54-.6,29.93-2.72.34-3.72-1.09-6.56-.62V148.92C287.36,148.24,290.69,149.36,293.41,148.92Z"/><path class="cls-1" d="M285.65,209.38c.47,4.16-10.28,2.83-15.51,2.44-7.28-.54-20-.54-27.46-1.23v-4.88C256.84,207.1,273,206.41,285.65,209.38Z"/><path class="cls-1" d="M119.74,213c-.43,3.49.63,5.45.59,8.55-18-.51-35.65-4.59-53.71-3.06-2.91,10.73-1.73,30.8,0,44,1.32,40.16.15,82.88,11.34,113,14,3.76,36,2,51.33,2.44v3.67c-1.32,3.39-6.2,1.81-9,1.83-14.43.08-32.5-.47-46,1.22-2.84-1.57-3.7-5.16-6-7.33-5.17-50.5-8.79-105.78-7.16-161.2C73.66,208,101,214.18,119.74,213Z"/><path class="cls-1" d="M130.47,213.65c65.63,6.28,135.69,5.23,200.54,9.77,1,2.63,3.59,3.65,5.37,5.49-1.56,50.63,2.92,104-1.19,149.6-59.87,1.85-124,4.88-186.21,4.89-3,0-9.45,1.52-10.74-1.83v-4.28c.29-3,6.34-1.27,11.34-1.22,47.4.51,96,.74,143.83-1.22,13.63-.56,27.85-.25,37-7.94a1244.38,1244.38,0,0,0-1.79-133.72c-11.77-6.75-29.1-5.95-45.95-7.33-48.38-4-102.27-6.57-152.79-4.27v-6.11C129.83,214.62,129.78,213.75,130.47,213.65Z"/><path class="cls-1" d="M71.39,225.86c17.19.53,32.4,3.08,49.54,3.67C125,274.8,129.1,323.34,129.88,370c-16,1.67-33.15-.11-48.94-.61C73.68,326.11,74.47,271.36,71.39,225.86Z"/><path class="cls-1" d="M130.47,227.08c9.81-.46,18,.76,27.46.62.48,16.2-.66,34.05,6,44,12.72,1.48,33.64-1,46.55-1.23,2.09-1.4.69,1.07,0,1.84-1,.55-1,2.24-2.38,2.44-1.26,2-1.57,4.92-3,6.72-1.56,4.91-3.26,9.68-4.77,14.65-.07,1.76.32,4-.6,4.89v14c3.29,21.05,15.58,32.91,30.43,42.13,11.78,4,23.38,8.24,40.59,6.72a87.87,87.87,0,0,0,16.72-6.11c16.24-11,27.93-33.13,25.66-61.06-1.55-19-14.39-30.55-25.66-39.68-19.48-10.29-55.27-4.53-68,6.1.06-11.65.15-23.35-1.19-33.58,20.5-1.55,42.58,1.4,64.46,2.44,13.94.66,28.15.23,40,4.27,3.77,19,1.25,44.51,1.19,67.78-.05,20.61,2.63,41.83-1.19,59.84-13.74,4.46-29.24,3.07-44.77,3.66-45.2,1.73-94.4,1.1-140.25,1.84C138.28,319.24,132.94,272,130.47,227.08Z"/><path class="cls-1" d="M213.44,228.91c-.8,9.89-1.1,23.14,0,33-14.84,2.12-29.23,4.69-46.56,4.27-.9-13.11-2.8-25.22-3.58-38.46C180.9,227.18,196,229.26,213.44,228.91Zm-40.59,4.89c-3.37,6.4-2.37,22.83,1.19,28.09,9.42-3,24.42-.26,34-3.06.54-6.52-.27-16.78-1.2-23.81C197.67,232.43,184,234.44,172.85,233.8Z"/><path class="cls-1" d="M175.84,239.29c2.45-.47,3.06.94,5.37.61-1,2-3.15,2.89-4.18,4.89C175.5,244.12,175.86,241.51,175.84,239.29Z"/><path class="cls-1" d="M180.61,246c-.62,1.61-2.37,2.06-3,3.67C176.31,248.49,179,246.25,180.61,246Z"/><path class="cls-1" d="M251,260.05c-.12-.51.23-.57.59-.61,12.73-.59,24.05.23,32.23,4.28a55.08,55.08,0,0,1,22.08,30.53c1.93,28.43-7,45.8-21.48,57.4-5.32,1.68-10,4-15.52,5.49-41.13,1.36-71-25.8-59.09-69C217.76,272.83,229.51,261.44,251,260.05ZM226,340.65a132,132,0,0,0,26.26,11c20.94,1.27,33.53-6,41.18-18.32,8.67-14.67,9.82-43.89-.6-57.4-8.36-10.18-23.59-13.3-41.77-13.43-.37,0-.71.09-.6.61C212,260,202.93,320.14,226,340.65Z"/><path class="cls-1" d="M243.28,269.82c-.11-.51.23-.57.59-.61,12.64-.3,24.62.06,34,3.06,26,15.68,16,78.22-23.27,72.05C237.79,341,225,333.49,220,318.07c-2.76-24.1,5.92-41.5,22.08-48.25Zm-9.55,61.67c7.63,5.31,18.54,10.23,32.22,7.33,20.58-5.07,31.41-48,10.15-60.44-8.05-3.58-17.45-5.76-29.84-4.89-.36,0-.71.09-.59.61C221.07,274.49,218.18,318.14,233.73,331.49Z"/><path class="cls-1" d="M254,280.21c-7,9.94-15.52,18.3-22.68,28.09C228.58,290.81,237.1,279.59,254,280.21Z"/><path class="cls-1" d="M264.76,281.43c-10,11.74-21.89,24.82-32.82,33.58.57-6.58,9-10.32,11.93-16.49,5.34-4.51,9-10.72,13.73-15.87.21-.81,1-1,1.19-1.83C261.45,280.34,262.38,281.63,264.76,281.43Z"/><path class="cls-1" d="M273.71,285.09c-11.09,14.09-25.3,25-36.4,39.08-1.76-.64-2.08-2.76-3-4.28,11.87-12.07,23.86-24,35.22-36.63C271.18,283.61,272,284.78,273.71,285.09Z"/><path class="cls-1" d="M240.29,327.22c12.14-13,24.2-26.13,37.6-37.86,8.9,15.33-1.47,36.87-12.53,43.36C255.18,335.14,245.59,332.94,240.29,327.22Z"/><path class="cls-1" d="M189.56,243c-2.18,3.06-6.3,9.43-11.93,11C181.52,250.2,185.93,247,189.56,243Z"/></svg>